<svg width="60" height="60" viewBox="0 0 60 60" fill="none" xmlns="http://www.w3.org/2000/svg">
<g id="bootstrap" clip-path="url(#clip0_10_79)">
<path id="Vector" d="M11.1159 59.9972H50.8856C56.0425 58.7208 59.1808 55.7523 60 50.8396V9.10703C58.8821 4.71192 56.4089 1.27627 50.8857 0L9.22851 0.0583779C3.99646 1.11001 1.16879 4.35267 0 9.10703V50.8396C1.18987 57.1508 6.57216 60.1049 11.1159 59.9972ZM35.8764 49.5924H15.1746V10.8504C15.1746 10.8504 36.2688 10.9406 37.2115 11.0999C42.8304 11.8632 45.3153 14.9933 45.7239 18.4631C46.4042 24.2414 43.9177 27.0432 40.7064 28.555C51.9352 32.4536 49.3546 48.7844 35.8764 49.5924ZM23.7897 26.5913L28.6283 26.5515C33.1669 26.5011 33.5068 26.4905 34.2371 26.2915C36.521 25.6706 37.5116 24.3597 37.5116 21.9582C37.5116 20.1167 36.861 18.9252 35.4481 18.2247C34.1973 17.6037 32.8429 17.4737 27.5262 17.4631H23.7897L23.7897 26.5913ZM23.7897 32.3682L23.7897 42.9957L29.0771 42.9559C35.0179 42.9161 35.2171 42.8948 36.6804 42.1863C38.3641 41.3664 39.113 40.0237 39.113 37.8318C39.113 35.0111 37.9923 33.4481 35.4083 32.668C34.2046 32.2642 28.6882 32.4396 23.7897 32.3682Z" fill="#7E57C2"/>
</g>
<defs>
<clipPath id="clip0_10_79">
<rect width="60" height="60" fill="white"/>
</clipPath>
</defs>
</svg>
