<svg width="60" height="60" viewBox="0 0 60 60" fill="none" xmlns="http://www.w3.org/2000/svg">
<g id="c">
<path id="csharp" d="M56.6579 17.2743V42.7257C56.6014 44.333 55.7845 45.7699 54.3491 46.7245L32.3076 59.4501C31.0378 60.1833 28.9598 60.1833 27.6901 59.4501L5.64855 46.7245C4.31081 45.8475 3.43863 44.4333 3.33984 42.7257V17.2743C3.33984 15.8081 4.37867 14.0085 5.64855 13.2755L27.6901 0.549901C28.9598 -0.1833 31.0378 -0.1833 32.3076 0.549901L54.3491 13.2755C55.6824 14.1756 56.6063 15.7316 56.6579 17.2743ZM45.3903 38.8913L37.6988 34.4406C32.568 42.6538 21.2368 38.6402 21.1125 30.0001C21.5263 20.6253 33.0551 17.8793 37.6982 25.559L45.3898 21.1082C35.3659 4.98301 12.1217 12.6459 12.2262 30.0001C12.6717 48.7093 36.5564 54.2268 45.3903 38.8913Z" fill="#0277BD"/>
</g>
</svg>
