<svg width="49" height="60" viewBox="0 0 49 60" fill="none" xmlns="http://www.w3.org/2000/svg">
<path id="Vector" d="M30.2906 32.4094L31.2648 31.5703C30.4558 31.7677 29.6339 31.772 28.8056 31.6969C27.812 31.7098 28.9944 32.2098 30.2906 32.4094ZM34.1404 30.3653C34.7327 29.5477 35.1641 28.6539 35.3164 27.729C35.1834 28.3878 34.825 28.9565 34.4881 29.5574C32.6297 30.7269 34.3143 28.8621 34.4881 28.1539C32.4902 30.669 34.2134 29.6636 34.1404 30.3653ZM36.1104 25.2419C36.2306 23.4521 35.7585 24.0165 35.5997 24.7011C35.7842 24.7977 35.9323 25.9629 36.1104 25.2419ZM25.0351 0.771473C25.5652 0.865895 26.1811 0.938859 26.0952 1.06547C26.6746 0.938859 26.8077 0.820831 25.0351 0.771473ZM24.7164 38.1091C23.2851 37.4395 21.975 36.4266 20.8977 35.1884C21.4685 36.0253 22.0866 36.8386 22.8827 37.4781C21.5329 37.021 19.7324 34.2098 19.2067 34.0961C21.5329 38.2593 28.6403 41.3967 32.3636 39.8408C30.6404 39.9031 28.4536 39.8752 26.518 39.1606C25.7733 38.7764 24.7862 38.0189 24.7776 37.77C24.7411 37.8666 24.6778 37.9631 24.7164 38.1091ZM46.1482 21.4414C46.1653 20.5293 46.4003 20.9585 46.4926 20.7332C46.3123 20.6302 45.8424 19.9306 45.5569 18.5894C45.7651 18.2739 46.1106 19.407 46.3939 19.4542C46.2115 18.3877 45.9003 17.5743 45.8874 16.7546C45.0634 15.0314 45.5956 16.9842 44.926 16.0142C44.0483 13.276 45.6535 15.379 45.763 14.1365C47.0934 16.0636 47.851 19.0486 48.1986 20.2868C47.9325 18.7782 47.5033 17.319 46.9797 15.9048C47.3831 16.0743 46.3295 12.8017 47.5055 14.9692C46.2501 10.3489 42.132 6.03122 38.3422 4.00544C38.8057 4.43034 39.3916 4.96254 39.1813 5.04623C37.2971 3.92389 37.6276 3.83591 37.3594 3.36379C35.8229 2.73932 35.7241 3.41315 34.707 3.36594C31.8142 1.83158 31.2563 1.99467 28.5931 1.03328L28.7154 1.59981C26.7991 0.962464 26.4815 1.84231 24.4106 1.60196C24.284 1.50325 25.0737 1.24573 25.724 1.15131C23.8699 1.39595 23.9578 0.786495 22.1445 1.21783C22.5909 0.904523 23.063 0.696365 23.5415 0.430265C22.0308 0.522541 19.9342 1.31011 20.5801 0.593358C18.1144 1.69424 13.7366 3.23718 11.2795 5.54194L11.2022 5.02477C10.0756 6.37672 6.29228 9.06132 5.99185 10.8124L5.69141 10.8832C5.10557 11.8747 4.72573 12.9992 4.26221 14.0206C3.4961 15.3254 3.13772 14.5228 3.24717 14.7267C1.7407 17.7825 0.99176 20.3491 0.345825 22.4543C0.807207 23.1431 0.356556 26.6003 0.530378 29.3686C-0.227147 43.0362 10.1228 56.3047 21.4342 59.3691C23.093 59.9614 25.5587 59.9399 27.6553 60C25.181 59.2918 24.8613 59.6245 22.4514 58.7854C20.7131 57.9656 20.3312 57.0321 19.0994 55.9634L19.5865 56.824C17.1702 55.9699 18.1809 55.766 16.2152 55.1437L16.7367 54.4634C15.9534 54.4033 14.6637 53.1437 14.3096 52.4462L13.4534 52.4805C12.4233 51.2101 11.8761 50.296 11.9169 49.5878L11.64 50.0814C11.3267 49.5427 7.85455 45.3195 9.65501 46.3023C9.32024 45.9955 8.87602 45.8045 8.39318 44.9289L8.76014 44.5105C7.89317 43.3946 7.16569 41.9653 7.21934 41.4889C7.68287 42.1134 8.00261 42.2293 8.32022 42.3366C6.13134 36.9052 6.00902 42.0383 4.35019 36.8086L4.69998 36.7807C4.43174 36.3751 4.26864 35.9352 4.0519 35.5039L4.20427 33.9824C2.62913 32.1604 3.76434 26.2333 3.99182 22.9843C4.14847 21.6624 5.30729 20.2547 6.18713 18.0486L5.65064 17.9563C6.67641 16.1666 11.507 10.7717 13.7452 11.0485C14.8289 9.68794 13.5306 11.0442 13.3182 10.7008C15.698 8.23727 16.447 8.96046 18.0543 8.51624C19.7861 7.48833 16.5671 8.91754 17.389 8.12353C20.3848 7.35957 19.5114 6.38531 23.4192 5.99689C23.8312 6.2308 22.4621 6.35955 22.1187 6.66428C24.6145 5.44323 30.0159 5.72006 33.5245 7.3424C37.5954 9.24587 42.1706 14.8683 42.3509 20.1602L42.5569 20.216C42.4539 22.3191 42.8788 24.7526 42.1406 26.9865L42.6427 25.9286C42.7007 27.5359 42.1727 28.317 41.6942 29.6969L40.8337 30.1261C40.1298 31.4909 40.9023 30.993 40.398 32.0789C39.2993 33.0553 37.0675 35.1326 36.3529 35.3214C35.8314 35.3107 36.707 34.7056 36.8207 34.4695C35.3529 35.4781 35.6426 35.9845 33.3958 36.5983L33.3292 36.4524C27.7862 39.0597 20.0887 33.8922 20.1895 26.8428C20.1294 27.2913 20.0221 27.1775 19.8977 27.3599C19.6123 23.7311 21.5737 20.0894 24.8806 18.6023C28.1167 17.0014 31.9086 17.658 34.2263 19.8169C32.9537 18.1495 30.4193 16.3812 27.4171 16.5464C24.475 16.5936 21.7239 18.4628 20.8054 20.4907C19.299 21.4392 19.123 24.1474 18.4663 24.6431C17.5822 31.1368 20.1273 33.9416 24.4342 37.2421C24.7819 37.476 24.8259 37.6047 24.7958 37.7249C29.8753 39.6219 35.1254 39.1584 39.5203 35.6348C40.6384 34.7635 41.8594 33.2828 42.2135 33.2613C41.6813 34.0618 42.3036 33.6455 41.8959 34.3515C43.0097 32.5553 41.4109 33.6197 43.0483 31.2484L43.6535 32.081C43.4281 30.5896 45.5054 28.7784 45.2951 26.42C45.7715 25.699 45.6307 28.1098 45.3209 28.8557C46.0226 27.0144 45.5054 26.7183 45.6857 25.1989C45.881 25.7097 46.1363 26.2526 46.2672 26.7912C45.8102 25.0122 46.7351 23.7955 46.9647 22.7611C46.7394 22.6603 46.2576 23.5423 46.1482 21.4414ZM17.814 33.757C18.4663 34.6455 18.9857 35.6069 19.8204 36.3C19.2196 35.1283 18.7754 34.6433 17.9534 33.0596C17.678 32.9364 17.6976 33.3576 17.814 33.757ZM19.4985 32.9995C19.153 32.6175 18.947 32.1562 18.7196 31.6969C18.9384 32.5038 19.3869 33.1948 19.8054 33.9008L19.4985 32.9995ZM44.9518 32.9544C45.9303 31.1132 46.5655 29.1003 46.8295 27.0595L46.6836 27.4265C46.4153 29.3278 45.8381 31.2098 44.9518 32.9544ZM27.5974 0C26.6682 0.0772546 25.7433 0.123393 24.8291 0.241421L25.2325 0.297216C25.9042 0.05043 26.8849 0.160947 27.5974 0ZM1.9081 13.8876C2.5991 12.3339 1.7171 13.3296 1.63985 12.9155C1.74715 14.2953 0.5776 14.8168 1.9081 13.8876ZM0.532535 17.3962C-0.327995 18.4971 0.135532 18.731 0.0454025 19.48C0.356567 18.5229 0.412362 17.9499 0.532535 17.3962Z" fill="#D0094D"/>
</svg>
