<svg width="60" height="60" viewBox="0 0 60 60" fill="none" xmlns="http://www.w3.org/2000/svg">
<g id="docker">
<path id="Vector" d="M5.49999 24.4H11.1V29.85H5.49999V24.4ZM12.375 24.4H18V29.85H12.375V24.4ZM12.375 17.4H18V22.85H12.375V17.4ZM19.275 24.4H24.875V29.85H19.275V24.4ZM19.275 17.4H24.875V22.85H19.275V17.4ZM26.15 24.4H31.775V29.85H26.15V24.4ZM26.15 17.4H31.775V22.85H26.15V17.4ZM33.05 24.4H38.65V29.85H33.05V24.4ZM26.15 10.4H31.775V15.85H26.15V10.4ZM13.325 37.725C14.2 37.725 14.9 38.4 14.9 39.25C14.9 40.075 14.2 40.775 13.325 40.775C12.5 40.775 11.775 40.075 11.775 39.25C11.775 38.4 12.5 37.725 13.325 37.725ZM56.725 27.225L57.5 27.65L57.1 28.425C55.5 31.45 52.175 32.375 48.925 32.225C44.05 44 33.425 49.6 20.575 49.6C13.925 49.6 7.82499 47.175 4.34999 41.45L4.29999 41.35L3.74999 40.35C2.62499 37.825 2.22499 35.075 2.49999 32.3L2.57499 31.475H39.5C40.825 31.475 42.175 31.25 43.4 30.85L45.3 30C44.525 29 44.1 27.725 44 26.475C43.825 24.775 44.175 22.5 45.375 21.25L45.975 20.55L46.675 21.1C48.45 22.5 49.925 24.425 50.2 26.625C52.325 26.025 54.85 26.15 56.725 27.225ZM13.35 42.125C15 42.125 16.25 40.825 16.25 39.25C16.25 37.65 15 36.35 13.325 36.35C11.7 36.35 10.375 37.65 10.375 39.25C10.375 40.85 11.7 42.125 13.35 42.125Z" fill="#1E9CEF"/>
</g>
</svg>
