<svg width="60" height="60" viewBox="0 0 60 60" fill="none" xmlns="http://www.w3.org/2000/svg">
<g id="symfony">
<path id="Vector" d="M51.2194 30.5344C51.2194 42.255 41.7188 51.7556 30 51.7556C18.2813 51.7556 8.78064 42.255 8.78064 30.5344C8.78064 18.8156 18.2813 9.31689 30 9.31689C41.7188 9.31689 51.2194 18.8156 51.2194 30.5344ZM39.2775 17.1656C37.1213 17.2406 35.2406 18.4294 33.84 20.0719C32.2875 21.8738 31.2563 24.0113 30.5138 26.1938C29.1844 25.1044 28.1588 23.6944 26.025 23.0775C24.375 22.6031 22.6444 22.7981 21.0506 23.985C20.295 24.5494 19.7756 25.4006 19.53 26.2013C18.8888 28.2825 20.2013 30.135 20.7994 30.8006L22.1025 32.1956C22.3706 32.4694 23.0175 33.1838 22.7025 34.2094C22.3613 35.325 21.0169 36.045 19.6406 35.6213C19.0256 35.43 18.1406 34.9725 18.3394 34.3294C18.42 34.065 18.6094 33.8663 18.7125 33.6394C18.8044 33.4425 18.8494 33.2963 18.8775 33.21C19.1288 32.3869 18.7856 31.3181 17.9063 31.0463C17.085 30.795 16.245 30.9938 15.9188 32.0513C15.5494 33.2531 16.1231 35.4319 19.2019 36.3825C22.8094 37.4906 25.86 35.5256 26.2931 32.9663C26.5669 31.3631 25.8413 30.1688 24.5138 28.6369L23.4338 27.4425C22.7775 26.7863 22.5544 25.6725 23.2313 24.8156C23.8031 24.0919 24.6188 23.7844 25.9519 24.1463C27.9 24.6731 28.7681 26.0269 30.2156 27.1163C29.6175 29.0775 29.2275 31.0463 28.8731 32.8144L28.6556 34.1306C27.6188 39.5625 26.8294 42.5438 24.7744 44.2575C24.36 44.5519 23.7694 44.9925 22.8769 45.0244C22.41 45.0394 22.2581 44.7169 22.2506 44.5763C22.2413 44.2481 22.5169 44.0981 22.7006 43.95C22.9744 43.8 23.3906 43.5506 23.3625 42.7575C23.3325 41.8163 22.5525 41.0006 21.4275 41.04C20.5838 41.0681 19.2994 41.8613 19.3481 43.3144C19.3988 44.8144 20.7956 45.9394 22.905 45.8663C24.0319 45.8288 26.55 45.3694 29.0306 42.4219C31.9181 39.0413 32.7244 35.1656 33.3338 32.3288L34.0106 28.5844C34.3875 28.6294 34.7906 28.6594 35.2294 28.6706C38.8238 28.7475 40.6219 26.8838 40.65 25.53C40.6669 24.7106 40.1119 23.9025 39.3338 23.9213C38.7769 23.9381 38.0775 24.3075 37.9106 25.0781C37.7475 25.8338 39.0544 26.5163 38.0306 27.1781C37.305 27.6488 36.0019 27.9806 34.1681 27.7106L34.5019 25.8675C35.1825 22.3725 36.0225 18.0731 39.2063 17.97C39.4388 17.9588 40.2881 17.9794 40.3069 18.5419C40.3125 18.7294 40.2675 18.7781 40.0463 19.2075C39.8213 19.5413 39.7388 19.8263 39.7481 20.1544C39.78 21.0469 40.4588 21.6338 41.4394 21.5981C42.7538 21.555 43.1306 20.2763 43.11 19.6181C43.0556 18.0731 41.4263 17.0963 39.2738 17.1656H39.2775Z" fill="#6AAB20"/>
</g>
</svg>
