<svg width="60" height="60" viewBox="0 0 60 60" fill="none" xmlns="http://www.w3.org/2000/svg">
<g id="typeScript">
<path id="Vector" fill-rule="evenodd" clip-rule="evenodd" d="M5.52002 5.51999V54.48H54.48V5.51999H5.52002ZM42.7224 29.3004V29.3011C43.1919 29.3026 43.7255 29.3267 44.1268 29.3702C45.7611 29.547 47.0338 30.2521 48.1165 31.5802C48.6558 32.2417 48.8402 32.5312 48.8009 32.655C48.7756 32.7349 48.4056 32.9999 47.2294 33.7807C46.0739 34.5478 45.7017 34.7775 45.6153 34.7775C45.5276 34.7775 45.3451 34.5896 45.0818 34.2288C44.5749 33.5341 44.0574 33.2171 43.2572 33.1113C42.3968 32.9974 41.625 33.2686 41.247 33.818C40.9239 34.2873 40.8751 35.0427 41.1319 35.5914C41.4294 36.2272 41.968 36.5786 44.0318 37.4836C46.4122 38.5273 47.6184 39.2417 48.4969 40.1283C49.443 41.083 49.9223 42.1854 50.0695 43.7447C50.1414 44.5047 50.0536 45.4055 49.8361 46.1379C49.3027 47.9332 47.8634 49.2478 45.7537 49.8665C45.1705 50.0375 44.6279 50.1396 44.0911 50.1789C43.2717 50.2393 42.0987 50.206 41.3928 50.1032C39.6067 49.8431 37.5904 48.8038 36.5851 47.6252C36.0915 47.0468 35.4615 46.0948 35.4615 45.9272C35.4615 45.8464 35.5015 45.8006 35.6602 45.6997C36.1308 45.4007 38.8275 43.8591 38.8798 43.8591C38.9114 43.8591 39.0523 44.0252 39.1927 44.228C39.5109 44.6873 40.2931 45.4768 40.6908 45.7402C41.0157 45.9554 41.4311 46.1282 41.9243 46.2528C42.2067 46.3232 42.3563 46.3358 42.9726 46.3358C43.6023 46.3356 43.7315 46.325 44.0133 46.2493C44.7584 46.0488 45.3401 45.6338 45.5866 45.1269C45.6946 44.9078 45.6967 44.8805 45.6967 44.3492V43.7985L45.5643 43.5357C45.2435 42.8989 44.5523 42.462 42.3669 41.5154C41.3631 41.0806 40.1336 40.4674 39.6536 40.1624C38.5582 39.4663 37.799 38.6704 37.3008 37.6963C36.8052 36.7275 36.7313 36.3669 36.7301 34.9102C36.7288 33.77 36.7269 33.7839 36.963 33.0561C37.1772 32.3957 37.6157 31.6579 38.0997 31.1434C39.0659 30.1165 40.4773 29.4565 41.9885 29.3252C42.1818 29.3069 42.4406 29.2998 42.7223 29.3006L42.7224 29.3004ZM29.7192 29.5256H29.7197C32.6301 29.5271 34.2984 29.5372 34.3252 29.554C34.3756 29.5852 34.3819 29.8385 34.3819 31.455V33.3199L31.4778 33.3305L28.5736 33.341V41.5866C28.5736 46.1218 28.5645 49.8592 28.5518 49.8922C28.5313 49.9477 28.308 49.9519 26.4184 49.9519H24.3078L24.286 49.8666C24.2719 49.8198 24.2616 46.0823 24.2614 41.5611L24.2607 33.3406L21.3566 33.3303L18.4525 33.3197V31.4769C18.4525 30.0153 18.4626 29.6238 18.5014 29.585C18.5414 29.5438 20.0235 29.5331 26.4097 29.5268C27.641 29.5256 28.749 29.525 29.7192 29.5256Z" fill="#0288D1"/>
</g>
</svg>
