<svg width="60" height="60" viewBox="0 0 60 60" fill="none" xmlns="http://www.w3.org/2000/svg">
<g id="github" clip-path="url(#clip0_9_41)">
<path id="Vector" d="M39.5177 59.0945C56.0967 53.5444 65.4024 33.9391 56.6384 16.9812C46.0936 -3.42241 17.2275 -4.75014 4.8041 14.597C-6.08571 31.556 2.54471 53.5298 20.5704 59.0918C22.0679 59.3668 22.6151 58.4405 22.6151 57.6504C22.6151 56.9376 22.5884 54.5752 22.5724 52.0767C14.2439 53.8865 12.4848 48.5451 12.4848 48.5451C11.1207 45.0856 9.15873 44.1646 9.15873 44.1646C6.43596 42.3067 9.36427 42.3441 9.36427 42.3441C12.37 42.5523 13.9556 45.4299 13.9556 45.4299C16.6277 50.0079 20.9681 48.6839 22.6712 47.9151C22.9434 45.9851 23.7176 44.6611 24.5718 43.9164C17.925 43.1609 10.9312 40.5903 10.9312 29.1146C10.9312 25.842 12.1004 23.1752 14.0117 21.0771C13.7074 20.3163 12.6743 17.2706 14.308 13.149C14.308 13.149 16.8199 12.3455 22.543 16.2188C27.4334 14.9024 32.4267 14.8577 37.5343 16.2242C43.2468 12.3455 45.764 13.1544 45.764 13.1544C47.4004 17.2786 46.37 20.3217 46.063 21.0798C47.9823 23.1752 49.1408 25.8446 49.1408 29.1173C49.1408 40.6223 42.1363 43.1556 35.4655 43.8977C36.544 44.8266 37.4969 46.6472 37.4969 49.4393C37.4969 53.4434 37.4569 56.6707 37.4569 57.6584C37.4569 58.4565 38.0015 59.3881 39.5177 59.0945Z" fill="black"/>
</g>
<defs>
<clipPath id="clip0_9_41">
<rect width="60" height="60" fill="white"/>
</clipPath>
</defs>
</svg>
