<svg width="233" height="748" viewBox="0 0 233 748" fill="none" xmlns="http://www.w3.org/2000/svg">
<path d="M154.743 99.8222C154.743 99.8222 158.791 77.0075 158.2 76.6684C161.106 65.2853 145.873 44.5729 142.474 40.039C124.045 15.4709 109.209 12.2449 78.5979 31.2813C54.446 46.2973 51.2019 84.5446 51.2019 87.2475C45.5077 88.72 48.0836 97.7587 53.6519 98.1656C53.6519 98.1656 50.8242 102.603 55.1045 106.061C59.3849 109.52 61.3991 108.192 61.3991 108.192C61.3991 108.192 56.6927 112.571 63.1519 116.291C63.1519 116.291 59.5882 117.357 63.8201 120.564C68.052 123.77 74.0465 117.212 74.0465 117.212C74.0465 117.212 71.9063 122.995 76.0704 125.698C80.2248 128.401 87.0133 124.022 87.0133 124.022C87.0133 124.022 89.9863 132.015 94.4313 132.538C98.8763 133.061 102.924 128.605 102.924 128.605C102.924 128.605 101.433 132.218 105.82 132.809C109.8 133.351 111.127 126.832 111.34 125.601C111.146 126.851 110.197 133.613 112.812 133.632C117.934 133.662 117.934 129.04 118.448 130.59C118.971 132.141 123.522 132.199 127.793 130.532C131.686 129.011 131.201 124.274 131.201 124.274C131.201 124.274 134.107 126.338 137.312 122.937C137.312 122.937 135.966 128.953 140.769 127.452C144.972 126.134 142.725 118.035 142.725 118.035C142.725 118.035 145.108 121.193 149.32 119.76C152.7 118.616 149.369 113.986 149.369 113.986C149.369 113.986 154.308 116.863 156.574 114.664C158.84 112.465 154.743 99.8125 154.743 99.8125V99.8222Z" fill="#430C0C"/>
<path d="M30.9101 202.435L30.6012 253.557C30.6012 253.557 6.69095 336.859 23.7476 414.667C40.8124 492.482 57.1373 202.557 57.1373 202.557L30.9101 202.427V202.435Z" fill="url(#paint0_linear_102_2)"/>
<path d="M105.275 402.111L187.314 728.129L219.753 724.387L201.038 690.763L150.38 377.65L105.275 402.111Z" fill="url(#paint1_linear_102_2)"/>
<path opacity="0.2" d="M196.021 659.785L150.38 377.65L105.275 402.111L171.363 664.76C179.566 663.007 187.786 661.367 196.021 659.793V659.785Z" fill="#201829"/>
<path d="M93.7465 384.954L84.2588 710.663L60.6738 695.43L29.6337 369.891L93.7465 384.954Z" fill="url(#paint2_linear_102_2)"/>
<path opacity="0.2" d="M85.649 662.966L93.7465 384.954L29.6255 369.891L57.5438 662.625C66.9095 662.325 76.4053 662.804 85.649 662.958V662.966Z" fill="#201829"/>
<path d="M40.7229 213.034L47.1049 295.663L149.681 282.101L119.795 230.094L40.7229 213.034Z" fill="url(#paint3_linear_102_2)"/>
<path d="M43.7555 245.92C43.7555 245.92 74.9664 258.711 129.787 249.296C129.787 249.296 179.209 294.372 186.696 351.663C191.948 391.877 215.346 644.072 215.346 644.072L141.047 649.696L73.1534 328.005L106.844 357.896L96.8603 646.856L19.081 652.935C19.081 652.935 -7.95106 395.262 43.7555 245.92Z" fill="#BAA6CE"/>
<path d="M154.786 189.806L190.314 220.412L153.786 263.102C153.786 263.102 140.412 252.867 136.843 255.757C127.608 263.248 118.258 290.85 135.957 264.222C135.957 264.222 117.421 307.406 142.193 266.437C142.193 266.437 129.705 306.497 148.233 272.386C148.233 272.386 140.559 306.473 152.412 276.404C152.412 276.404 156.859 283.895 163.941 278.644C171.022 273.393 226.923 230.605 232.175 217.725C237.427 204.853 181.152 164.12 181.152 164.12L154.778 189.806H154.786Z" fill="url(#paint4_linear_102_2)"/>
<path opacity="0.2" d="M84.6898 347.929C60.6007 334.984 42.0319 319.288 28.1785 304.671C-1.75603 454.232 19.0729 652.935 19.0729 652.935L96.8522 646.856L102.982 469.376L106.169 484.496C93.9986 413.36 84.6817 347.929 84.6817 347.929H84.6898Z" fill="#201829"/>
<path opacity="0.2" d="M125.722 240.401L119.803 230.094L40.7311 213.034L43.3083 246.431C66.2266 248.298 98.8033 248.712 125.722 240.401Z" fill="#201829"/>
<path d="M76.2834 137.751C76.2834 137.751 58.3487 135.478 49.0887 141.314C37.3816 148.699 29.6093 172.584 29.6337 188.346C29.6581 202.849 43.3083 246.431 43.3083 246.431C43.3083 246.431 93.9091 256.276 125.722 240.401L149.274 193.8L167.989 208.749L198.867 176.058C198.867 176.058 174.534 147.1 151.144 145.234L129.624 142.434C129.624 142.434 80.0313 164.85 76.2834 137.759V137.751Z" fill="#FDEFE6"/>
<path d="M59.8853 693.092L86.0881 699.634L88.8929 719.25L0 722.521C0 722.521 5.2926 713.179 59.8853 693.092Z" fill="white"/>
<path d="M0 722.521L88.9011 719.25L89.836 725.791L0.934945 726.725L0 722.521Z" fill="#2B2238"/>
<path d="M52.2349 695.706C55.0479 698.449 56.9259 701.931 59.1535 705.128C59.3486 705.412 59.8202 705.145 59.6169 704.861C57.3649 701.63 55.4625 698.108 52.617 695.332C52.3731 695.089 51.991 695.47 52.2349 695.714V695.706Z" fill="#2B2238"/>
<path d="M46.6578 697.353C49.4708 700.096 51.3488 703.578 53.5764 706.776C53.7715 707.06 54.243 706.792 54.0398 706.508C51.7878 703.278 49.8854 699.756 47.0399 696.98C46.796 696.736 46.4139 697.118 46.6578 697.361V697.353Z" fill="#2B2238"/>
<path d="M40.536 699.439C43.349 702.182 45.227 705.664 47.4546 708.862C47.6497 709.146 48.1213 708.878 47.918 708.594C45.666 705.364 43.7636 701.841 40.9181 699.066C40.6742 698.822 40.2921 699.204 40.536 699.447V699.439Z" fill="#2B2238"/>
<path d="M176.387 684.692L182.94 719.721C182.94 719.721 194.639 753.816 217.566 745.878C240.492 737.941 200.72 685.626 200.72 685.626C200.72 685.626 189.021 695.438 176.387 684.692Z" fill="white"/>
<path d="M217.566 740.27C195.55 745.765 184.769 720.565 181.851 713.877L182.94 719.721C182.94 719.721 194.639 753.816 217.566 745.878C222.907 744.028 224.818 739.759 224.647 734.313C223.403 736.115 221.305 739.337 217.566 740.27V740.27Z" fill="#2B2238"/>
<path d="M189.9 694.87C193.208 692.743 197.021 691.688 200.639 690.236C200.956 690.106 200.818 689.586 200.493 689.716C196.834 691.193 192.973 692.256 189.623 694.407C189.33 694.594 189.599 695.056 189.891 694.87H189.9Z" fill="#2B2238"/>
<path d="M192.371 700.924C195.753 698.92 199.607 698.011 203.273 696.688C203.598 696.574 203.46 696.055 203.127 696.168C199.412 697.507 195.517 698.433 192.095 700.453C191.794 700.632 192.07 701.095 192.363 700.916L192.371 700.924Z" fill="#2B2238"/>
<path d="M195.859 706.719C199.086 704.438 202.875 703.213 206.444 701.59C206.761 701.444 206.485 700.981 206.176 701.127C202.607 702.75 198.818 703.976 195.59 706.256C195.314 706.451 195.582 706.922 195.859 706.719Z" fill="#2B2238"/>
<path d="M90.9417 104.24L85.8686 137.564L69.7875 137.313L63.0966 137.499L90.7059 175.92L138.177 143.529L117.071 140.583L119.836 95.3531L90.9417 104.24Z" fill="url(#paint5_linear_102_2)"/>
<g style="mix-blend-mode:multiply">
<path d="M88 126.328C88 126.328 100.68 136.587 117.734 133.379L119 118.778C119 118.778 109.793 123.606 88.3885 118L88 126.328V126.328Z" fill="#C990AC" fill-opacity="0.53"/>
</g>
<path d="M157.754 80.7771C157.477 81.7916 157.184 82.7006 156.884 83.5122C156.884 83.5284 156.876 83.5365 156.867 83.5527C154.689 89.3475 151.827 90.573 150.55 93.1783C149.445 95.4264 145.364 99.8252 141.884 94.7933C141.876 94.7933 141.868 94.7771 141.868 94.7771C141.868 94.7771 144.803 75.3313 146.453 71.8577C146.453 71.8577 148.843 66.6472 152.632 66.0629C157.502 65.3081 160.16 71.7927 157.754 80.7771V80.7771Z" fill="url(#paint6_linear_102_2)"/>
<path style="mix-blend-mode:multiply" opacity="0.6" d="M143.876 82.7331C143.876 82.7331 152.038 72.2635 155.681 71.7603C159.323 71.2571 156.973 80.4038 156.071 83.4473C155.168 86.4908 153.973 88.2438 153.973 88.2438C153.973 88.2438 155.095 84.6566 155.445 81.7186C155.949 77.4983 154.811 73.7893 153.282 74.049C151.754 74.3087 149.404 79.511 149.242 80.1035C149.071 80.7041 150.144 81.8484 149.884 85.1354C149.624 88.4224 147.843 91.896 146.99 91.7986C146.136 91.7093 146.664 89.0635 146.843 85.9957C147.022 82.9279 144.583 83.3824 143.404 85.3139L143.868 82.725L143.876 82.7331Z" fill="url(#paint7_linear_102_2)"/>
<path style="mix-blend-mode:multiply" opacity="0.6" d="M143.412 85.314C143.412 85.314 145.518 82.5059 146.599 83.9019C147.681 85.2978 146.632 88.9256 147.494 89.4207C148.355 89.9158 149.721 87.0103 149.648 84.2752C149.575 81.5401 148.64 79.0404 147.071 79.4056L143.868 82.7332L143.404 85.3221L143.412 85.314Z" fill="url(#paint8_linear_102_2)"/>
<g style="mix-blend-mode:multiply">
<path d="M156.859 83.5609C154.681 89.3557 151.819 90.5812 150.542 93.1864C149.437 95.4345 145.355 99.8334 141.876 94.8015C142.087 94.9963 144.169 96.8954 146.421 96.2218C148.803 95.5076 149.673 93.3812 150.762 91.7499C151.835 90.1186 154.437 89.1122 156.859 83.5609V83.5609Z" fill="#DD90B6"/>
</g>
<path d="M51.3243 74.5521C51.4788 75.5909 51.6658 76.5324 51.869 77.3764L51.8853 77.417C53.3731 83.4309 56.0722 84.9811 57.0397 87.708C57.8689 90.0617 61.4136 94.9069 65.4623 90.3214C65.4704 90.3214 65.4786 90.3051 65.4786 90.3051C65.4786 90.3051 64.8363 70.6483 63.6006 67.0124C63.6006 67.0124 61.8364 61.5585 58.1372 60.5359C53.3893 59.213 49.991 65.3486 51.3243 74.5521V74.5521Z" fill="url(#paint9_linear_102_2)"/>
<path style="mix-blend-mode:multiply" opacity="0.6" d="M64.8769 78.1068C64.8769 78.1068 57.9908 66.7607 54.4299 65.8355C50.869 64.9103 52.1291 74.268 52.6738 77.3926C53.2185 80.5173 54.1941 82.4002 54.1941 82.4002C54.1941 82.4002 53.5031 78.7074 53.495 75.7532C53.495 71.5086 55.0478 67.9538 56.5437 68.3839C58.0396 68.8141 59.755 74.2599 59.8526 74.8686C59.9501 75.4854 58.755 76.4999 58.625 79.7868C58.4949 83.0738 59.8607 86.7341 60.7144 86.7422C61.568 86.7503 61.3566 84.0639 61.5436 80.9961C61.7306 77.9283 64.0883 78.6587 65.0395 80.7202L64.8769 78.0987V78.1068Z" fill="url(#paint10_linear_102_2)"/>
<path style="mix-blend-mode:multiply" opacity="0.6" d="M65.0314 80.7282C65.0314 80.7282 63.2672 77.6929 62.0315 78.9509C60.7957 80.2088 61.4136 83.9422 60.4949 84.3317C59.5762 84.7213 58.56 81.6778 58.9583 78.9671C59.3486 76.2564 60.5762 73.8865 62.0884 74.4303L64.8769 78.1068L65.0395 80.7282H65.0314Z" fill="url(#paint11_linear_102_2)"/>
<g style="mix-blend-mode:multiply">
<path d="M51.8852 77.4169C53.373 83.4308 56.0721 84.981 57.0396 87.7079C57.8689 90.0616 61.4135 94.9068 65.4622 90.3213C65.2265 90.4917 62.9419 92.1311 60.7794 91.1978C58.4949 90.2158 57.877 87.992 56.9908 86.2552C56.1128 84.5103 53.6494 83.2117 51.8933 77.4088L51.8852 77.4169Z" fill="#DD90B6"/>
</g>
<path d="M143.965 87.9353C143.941 88.0327 143.9 88.2032 143.835 88.4385C142.559 93.6408 141.144 100.637 140.152 103.25C136.282 113.436 118.917 123.353 101.893 122.363C84.8685 121.365 68.7793 109.491 66.1371 98.9243C65.8281 97.6826 65.4948 96.0675 65.1696 94.1603C64.0233 87.4971 63.0395 74.6982 62.6005 64.813C62.1046 53.5887 62.5192 42.6971 64.8363 37.6165C66.4623 34.0536 70.2346 30.02 75.5841 26.5626C83.5108 21.4252 94.9252 17.5457 107.998 18.3086C129.908 19.591 145.632 33.2663 148.607 42.5185C151.29 50.8698 147.615 72.8478 143.957 87.9435L143.965 87.9353Z" fill="url(#paint12_linear_102_2)"/>
<g style="mix-blend-mode:multiply">
<path d="M143.843 88.4385C142.567 93.6408 141.152 100.637 140.16 103.25C136.29 113.436 118.925 123.353 101.901 122.363C84.8766 121.365 68.7874 109.491 66.1452 98.9243C65.8363 97.6825 65.5029 96.0675 65.1777 94.1602L64.5843 90.0779C64.5843 90.0779 65.6411 98.1046 70.4297 105.295C75.2182 112.478 88.6408 119.92 102.006 120.699C115.364 121.478 130.291 114.361 135.469 108.85C139.998 104.029 143.16 91.0762 143.843 88.4385Z" fill="#CDB5C1"/>
</g>
<path style="mix-blend-mode:multiply" opacity="0.6" d="M115.033 56.6143C115.033 56.6143 114.47 79.0171 117.974 82.6297C121.47 86.2422 131.999 85.6604 138.83 81.3285C145.662 76.9967 144.981 60.9947 144.981 60.9947C144.981 60.9947 138.855 54.1574 128.318 55.0868C117.789 56.0163 115.033 56.6143 115.033 56.6143V56.6143Z" fill="url(#paint13_linear_102_2)"/>
<path style="mix-blend-mode:multiply" opacity="0.6" d="M97.9678 55.6681C97.9678 55.6681 98.512 78.8177 95.1248 82.5507C91.7458 86.2837 81.5679 85.6824 74.9641 81.2061C68.3602 76.7299 69.0182 60.1945 69.0182 60.1945C69.0182 60.1945 74.9397 53.1293 85.1257 54.0897C95.3035 55.0501 97.9678 55.6681 97.9678 55.6681Z" fill="url(#paint14_linear_102_2)"/>
<path d="M117.608 90.2889C117.608 90.2889 117.421 90.8651 115.218 90.9382C113.023 91.0274 110.974 92.9347 107.25 92.9347C103.527 92.9347 101.665 91.0193 99.4619 90.9382C97.2668 90.857 96.8928 90.2889 96.8928 90.2889C96.5676 88.8605 96.7709 87.4645 97.1774 86.2715C97.1774 86.2715 97.1855 86.239 97.1855 86.2228C97.9091 84.1289 99.2098 82.6599 99.2098 82.6599C104.437 80.144 110.047 80.144 115.275 82.6599C115.275 82.6599 116.112 83.6014 116.811 85.0541V85.0703C117.486 86.4744 118.039 88.3411 117.592 90.2889H117.608Z" fill="url(#paint15_linear_102_2)"/>
<path d="M112.624 91.6441C112.624 91.6441 114.315 90.1995 116.405 90.8244L112.624 91.6441Z" fill="#822852"/>
<path d="M98.3399 90.8327C98.3399 90.8327 100.47 90.1996 102.608 91.8959L98.3399 90.8327Z" fill="#822852"/>
<g style="mix-blend-mode:multiply" opacity="0.6">
<path d="M117.608 90.2888C117.608 90.2888 117.421 90.865 115.218 90.9381C113.023 91.0274 110.974 92.9346 107.25 92.9346C103.527 92.9346 101.665 91.0192 99.4619 90.9381C97.2668 90.8569 96.8928 90.2888 96.8928 90.2888C96.5676 88.8604 96.7709 87.4645 97.1774 86.2714C97.0961 86.6204 96.6327 88.8847 97.5107 89.4366C98.4619 90.0291 103.86 89.6801 107.25 89.6801C110.641 89.6801 116.405 89.6882 117.055 88.7955C117.673 87.9352 116.901 85.3218 116.827 85.0784C117.502 86.4824 118.055 88.3491 117.608 90.2969V90.2888Z" fill="#CC77B1"/>
</g>
<path style="mix-blend-mode:multiply" opacity="0.6" d="M115.283 82.6599C115.283 82.6599 114.071 86.3932 114.218 89.0066C114.218 89.0066 113.315 86.4582 114.51 82.3109L115.283 82.6599Z" fill="url(#paint16_linear_102_2)"/>
<path style="mix-blend-mode:multiply" opacity="0.6" d="M99.4131 82.6599C99.4131 82.6599 100.625 86.3932 100.478 89.0066C100.478 89.0066 101.381 86.4582 100.185 82.3109L99.4131 82.6599Z" fill="url(#paint17_linear_102_2)"/>
<g style="mix-blend-mode:multiply">
<path d="M97.5189 89.4285C97.5189 89.4285 97.0067 89.9966 96.901 90.2888C96.7953 90.581 101.722 95.2152 107.259 95.2152C112.795 95.2152 117.51 90.8488 117.616 90.2888C117.714 89.7207 116.811 89.0065 116.811 89.0065C116.811 89.0065 112.486 89.672 107.259 89.672C102.031 89.672 97.5189 89.4285 97.5189 89.4285Z" fill="#C38ABD"/>
</g>
<g style="mix-blend-mode:multiply">
<path d="M98 58.0911C98 58.0911 95.7923 57.1203 90.4613 56.9358C88.8782 56.8797 87.0213 56.8957 84.8735 57.0241C75.4522 57.5857 68.812 59.3347 68.812 59.3347C68.8718 59.1662 71.4646 54.9943 74.7933 53.1329C74.7676 53.173 74.3569 53.8871 74.4083 54.6573C74.4083 54.6573 78.2247 51.6888 83.5044 50.4853C84.4884 50.2607 85.5238 50.1002 86.5935 50.028C93.4049 49.5787 96.6223 54.6814 96.6223 54.6814C96.6223 54.6814 96.4597 53.3576 95.7324 52.5633C95.7324 52.5633 97.9487 54.0315 98 58.0911V58.0911Z" fill="#411210"/>
<g style="mix-blend-mode:multiply">
<path d="M90.4614 56.9358C88.8783 56.8797 87.0214 56.8957 84.8736 57.0241C75.4523 57.5857 68.8121 59.3347 68.8121 59.3347C68.872 59.1662 71.4647 54.9943 74.7934 53.1329C74.7678 53.1731 74.357 53.8871 74.4084 54.6573C74.4084 54.6573 78.2248 51.6888 83.5045 50.4854C81.6391 51.424 77.583 53.5501 75.2384 56.7994C75.2384 56.7994 80.3298 54.9862 90.4699 56.9358H90.4614Z" fill="#AF5653"/>
</g>
<path d="M115 58.0911C115 58.0911 117.243 57.1203 122.66 56.9358C124.268 56.8797 126.155 56.8957 128.337 57.0241C137.91 57.5857 144.656 59.3347 144.656 59.3347C144.596 59.1662 141.961 54.9943 138.579 53.1329C138.605 53.173 139.023 53.8871 138.97 54.6573C138.97 54.6573 135.093 51.6888 129.728 50.4853C128.728 50.2607 127.676 50.1002 126.59 50.028C119.669 49.5787 116.4 54.6814 116.4 54.6814C116.4 54.6814 116.565 53.3576 117.304 52.5633C117.304 52.5633 115.052 54.0315 115 58.0911V58.0911Z" fill="#411210"/>
<g style="mix-blend-mode:multiply">
<path d="M122.66 56.9358C124.268 56.8797 126.155 56.8957 128.337 57.0241C137.91 57.5857 144.656 59.3347 144.656 59.3347C144.596 59.1662 141.961 54.9943 138.579 53.1329C138.605 53.1731 139.022 53.8871 138.97 54.6573C138.97 54.6573 135.093 51.6888 129.728 50.4854C131.624 51.424 135.745 53.5501 138.127 56.7994C138.127 56.7994 132.954 54.9862 122.651 56.9358H122.66Z" fill="#AF5653"/>
</g>
</g>
<path d="M141.258 71.4923C141.258 71.4923 139.599 74.9983 134.356 76.4673C129.112 77.9363 123.502 77.985 120.079 76.5728C120.079 76.5728 120.226 75.396 120.827 73.7972C121.876 71.0297 124.323 67.0041 129.803 65.665C137.412 63.8146 140.486 69.723 141.128 71.1757C141.209 71.3786 141.258 71.4923 141.258 71.4923V71.4923Z" fill="url(#paint18_linear_102_2)"/>
<path d="M129.201 77.6036C133.256 77.6036 136.543 74.3224 136.543 70.2749C136.543 66.2273 133.256 62.9462 129.201 62.9462C125.147 62.9462 121.86 66.2273 121.86 70.2749C121.86 74.3224 125.147 77.6036 129.201 77.6036Z" fill="url(#paint19_linear_102_2)"/>
<path style="mix-blend-mode:multiply" d="M129.201 74.414C131.491 74.414 133.347 72.5609 133.347 70.2749C133.347 67.9889 131.491 66.1357 129.201 66.1357C126.911 66.1357 125.055 67.9889 125.055 70.2749C125.055 72.5609 126.911 74.414 129.201 74.414Z" fill="url(#paint20_linear_102_2)"/>
<g style="mix-blend-mode:multiply" opacity="0.6">
<path d="M141.136 71.1757C139.234 69.7149 135.884 68.2621 131.201 68.2621C125.413 68.2621 121.039 73.3427 120.836 73.7972C121.884 71.0297 124.331 67.0041 129.811 65.665C137.421 63.8146 140.494 69.723 141.136 71.1757V71.1757Z" fill="#CC77B1"/>
</g>
<path d="M121.535 72.2146C121.535 72.2146 121.949 65.2511 128.193 62.654C135.998 59.4076 140.234 69.5445 140.234 69.5445C140.234 69.5445 130.795 58.9613 121.535 72.2146Z" fill="#A13C49"/>
<path d="M123.356 77.4088C123.99 77.4819 134.356 75.7938 140.331 72.8315C140.494 72.7503 138.112 76.2726 133.535 77.3845C127.266 78.9103 123.356 77.4088 123.356 77.4088Z" fill="#9F213E"/>
<path d="M120.836 73.7971C120.836 73.7971 118.974 76.2968 119.177 76.9948C119.388 77.6847 121.86 77.1409 121.86 77.1409C121.86 77.1409 120.502 76.4267 120.51 75.9884C120.518 75.5502 120.836 73.8052 120.836 73.8052V73.7971Z" fill="#86152F"/>
<path d="M140.916 70.7213C140.916 70.7213 140.29 67.5317 139.599 66.5821C138.908 65.6326 134.559 63.6847 129.624 64.4395C124.689 65.1943 122.169 70.145 120.998 73.3752C120.998 73.3752 125.128 66.0789 131.64 66.2007C138.152 66.3305 140.925 70.7131 140.925 70.7131L140.916 70.7213Z" fill="#2B101F"/>
<path d="M131.844 69.3902C131.616 69.4633 131.575 70.1207 131.844 70.0557C132.112 69.9908 132.616 69.9665 132.616 69.723C132.616 69.4795 132.144 69.2928 131.844 69.3902Z" fill="white"/>
<path d="M72.4216 71.5085C72.4216 71.5085 74.0801 75.0146 79.3239 76.4836C84.5677 77.9526 90.1774 78.0013 93.6001 76.5891C93.6001 76.5891 93.4538 75.4123 92.8521 73.8134C91.8034 71.0459 89.3563 67.0204 83.8767 65.6812C76.267 63.8308 73.1939 69.7392 72.5516 71.192C72.4703 71.3949 72.4216 71.5085 72.4216 71.5085V71.5085Z" fill="url(#paint21_linear_102_2)"/>
<path d="M89.6712 75.4744C92.5382 72.6124 92.5382 67.9721 89.6712 65.1101C86.8042 62.248 82.1559 62.248 79.289 65.1101C76.422 67.9721 76.422 72.6124 79.289 75.4744C82.1559 78.3364 86.8042 78.3364 89.6712 75.4744Z" fill="url(#paint22_linear_102_2)"/>
<path style="mix-blend-mode:multiply" d="M87.4119 73.219C89.0312 71.6026 89.0312 68.9819 87.4119 67.3654C85.7927 65.749 83.1674 65.749 81.5482 67.3654C79.929 68.9819 79.929 71.6026 81.5482 73.219C83.1674 74.8355 85.7927 74.8355 87.4119 73.219Z" fill="url(#paint23_linear_102_2)"/>
<g style="mix-blend-mode:multiply" opacity="0.6">
<path d="M72.5517 71.192C74.4541 69.7311 77.8036 68.2784 82.4865 68.2784C88.275 68.2784 92.6489 73.3589 92.8522 73.8134C91.8034 71.0459 89.3563 67.0204 83.8767 65.6812C76.2671 63.8308 73.1939 69.7392 72.5517 71.192V71.192Z" fill="#CC77B1"/>
</g>
<path d="M92.1448 72.2308C92.1448 72.2308 91.7302 65.2674 85.4864 62.6703C77.6817 59.4239 73.4459 69.5607 73.4459 69.5607C73.4459 69.5607 82.8848 58.9775 92.1448 72.2308Z" fill="#A13C49"/>
<path d="M90.3318 77.4251C89.6977 77.4981 79.332 75.81 73.3565 72.8477C73.1939 72.7665 75.576 76.2889 80.1531 77.4007C86.4213 78.9265 90.3318 77.4251 90.3318 77.4251Z" fill="#9F213E"/>
<path d="M92.8521 73.8135C92.8521 73.8135 94.7139 76.3132 94.5106 77.0112C94.2993 77.701 91.8278 77.1572 91.8278 77.1572C91.8278 77.1572 93.1855 76.443 93.1773 76.0048C93.1692 75.5665 92.8521 73.8216 92.8521 73.8216V73.8135Z" fill="#86152F"/>
<path d="M72.7631 70.7375C72.7631 70.7375 73.3891 67.5479 74.0801 66.5984C74.7712 65.6488 79.1207 63.701 84.0556 64.4557C88.9904 65.2105 91.5107 70.1612 92.6814 73.3914C92.6814 73.3914 88.5514 66.0952 82.0393 66.2169C75.5272 66.3468 72.7549 70.7294 72.7549 70.7294L72.7631 70.7375Z" fill="#2B101F"/>
<path d="M81.8361 69.4065C82.0637 69.4795 82.1043 70.1369 81.8361 70.072C81.5678 70.007 81.0637 69.9827 81.0637 69.7392C81.0637 69.4957 81.5353 69.3091 81.8361 69.4065Z" fill="white"/>
<g style="mix-blend-mode:multiply">
<path d="M94.8847 109.499C94.8847 109.499 100.381 115.229 105.047 115.667C109.714 116.106 116.86 109.134 116.86 109.134C116.86 109.134 106.12 118.654 94.8847 109.499V109.499Z" fill="#D49FCF" fill-opacity="0.29"/>
</g>
<path d="M87.4296 98.3317C87.4296 98.3317 92.6165 113.744 105.649 113.744C118.681 113.744 123.868 98.3885 123.868 98.3885L105.893 105.344L87.4296 98.3317Z" fill="#B14755"/>
<path d="M105.649 101.124C94.8847 101.302 86.1613 96.9358 86.1613 96.9358C86.1613 96.9358 91.0555 108.493 105.649 108.493C120.242 108.493 125.136 96.9358 125.136 96.9358C125.136 96.9358 116.421 101.302 105.649 101.124Z" fill="#541020"/>
<path d="M113.811 98.1126C109.283 97.4552 102.023 97.4552 97.4945 98.1126C92.9661 98.77 87.4378 97.5039 87.4378 97.5039C87.4378 97.5039 95.8848 101.456 105.657 101.124C115.429 101.464 123.876 97.5039 123.876 97.5039C123.876 97.5039 118.348 98.7781 113.819 98.1126H113.811Z" fill="#A13C49"/>
<path d="M90.771 98.7863C90.771 98.7863 96.9986 104.5 105.25 104.5C113.502 104.5 119.909 98.9892 119.909 98.9892C119.909 98.9892 114.023 101.489 105.584 101.489C97.1449 101.489 90.771 98.7863 90.771 98.7863Z" fill="#FBDCEA"/>
<path d="M123.071 95.8239C123.071 95.8239 126.128 97.6338 126.722 99.3219C126.722 99.3219 126.275 96.2297 125.25 95.4425C124.226 94.6552 123.071 95.8239 123.071 95.8239Z" fill="url(#paint24_linear_102_2)"/>
<path d="M88.4945 95.8239C88.4945 95.8239 85.4377 97.6338 84.8442 99.3219C84.8442 99.3219 85.2913 96.2297 86.3157 95.4425C87.3401 94.6552 88.4945 95.8239 88.4945 95.8239V95.8239Z" fill="url(#paint25_linear_102_2)"/>
<g style="mix-blend-mode:soft-light">
<path d="M111.706 108.493C111.706 108.493 112.86 109.24 113.437 110.635L114.38 110.149C114.38 110.149 114.494 109.361 113.047 108.03L111.714 108.493H111.706Z" fill="#FBDCEA"/>
</g>
<g style="mix-blend-mode:soft-light">
<path d="M113.559 108.03C113.559 108.03 114.681 108.607 114.803 109.905L115.08 109.605C115.08 109.605 114.779 108.225 113.689 108.03H113.567H113.559Z" fill="#FBDCEA"/>
</g>
<path d="M96.1855 106.561C96.1855 106.561 104.234 109.329 114.803 106.561C114.803 106.561 106.998 111.025 96.1855 106.561Z" fill="#FBDCEA"/>
<path d="M100.852 76.8845C102.322 68.594 96.1713 60.7824 87.1138 59.4367C78.0564 58.0909 69.522 63.7207 68.0517 72.0112C66.5815 80.3016 72.7322 88.1133 81.7896 89.459C90.8471 90.8047 99.3815 85.1749 100.852 76.8845Z" stroke="#43232B" stroke-miterlimit="10"/>
<path d="M134.14 90.4028C143.071 88.4735 148.602 80.2828 146.494 72.1085C144.386 63.9341 135.438 58.8715 126.507 60.8008C117.577 62.7302 112.046 70.9208 114.153 79.0952C116.261 87.2695 125.21 92.3321 134.14 90.4028Z" stroke="#43232B" stroke-miterlimit="10"/>
<path d="M101 74.565L108 73.5L113.5 74.565" stroke="#43232B" stroke-miterlimit="10"/>
<path d="M68 72L62 66" stroke="#43232B" stroke-miterlimit="10"/>
<path d="M168.564 65.7551C167.353 70.289 164.312 64.8542 164.312 64.8542C163.092 71.8003 158.114 72.4203 158.114 72.4203C158.114 72.4203 162.889 74.7163 162.598 79.4924C162.308 84.2684 153.553 83.474 153.553 83.474C153.553 83.474 155.393 92.1543 151.2 93.1327C146.997 94.1112 147.578 90.3523 147.578 90.3523C142.455 92.2124 145.002 86.7873 145.002 86.7873C143.298 85.0338 148.004 79.783 148.004 79.783C145.38 79.318 146.087 74.0769 146.087 74.0769C145.119 76.4504 145.196 76.9154 145.196 76.9154C145.196 76.9154 144.586 80.6258 141.555 80.0833C138.514 79.5505 135.251 65.4451 135.251 65.4451C132.394 64.3117 135.822 52.1148 135.822 52.1148C135.822 52.1148 133.614 53.5582 132.316 52.4054C131.048 51.2719 132.733 46.7284 132.791 46.554C132.733 46.6606 131.726 48.3365 127.223 47.9006C122.661 47.4646 122.681 40.1504 122.729 40.0535C118.662 41.6811 114.43 38.581 114.43 38.581C114.43 38.581 112.948 42.5142 111.137 42.3011C109.326 42.0879 103.642 35.7037 103.642 35.7037C100.01 37.0794 96.2821 35.7425 96.2821 35.7425C96.6985 35.9943 93.2994 43.483 90.2006 42.582C87.2179 41.7198 86.6271 40.4507 86.5787 40.3635C86.5787 40.4991 86.7143 43.4539 84.4192 48.9275C82.066 54.5367 77.8438 52.1632 77.8438 52.1632C77.8438 52.1632 78.8993 58.2374 78.1343 60.6884C77.3692 63.1394 75.8392 65.1642 75.8392 65.1642C75.8392 65.1642 75.3259 70.7153 73.118 69.9402C70.91 69.1555 70.9778 67.1405 70.8422 66.5398C70.7066 65.9489 69.806 68.3999 66.6684 69.6399C63.5308 70.88 64.1506 66.7336 64.1506 66.7336C62.8626 68.9908 60.0833 68.3321 60.0833 68.3321C60.0833 68.3321 60.7805 74.8713 59.202 77.1189C55.5996 82.2534 52.5298 73.5635 52.5298 73.5635C49.2275 72.7109 50.622 68.3611 50.622 68.3611C50.622 68.3611 49.8182 69.4074 47.7652 67.7605C45.7122 66.1136 45.3926 58.9253 47.3101 55.9414C49.0822 53.1804 49.7311 55.5636 49.8182 55.9221C49.8182 55.9511 49.8182 55.9705 49.8182 55.9705C49.8182 55.9705 44.1724 52.9188 44.2015 50.3128C44.2306 47.7068 46.5644 42.9695 46.5644 42.9695C46.5644 42.9695 43.5236 40.4798 43.1169 37.5541C42.7102 34.6284 43.2912 27.6822 46.0318 27.5369C48.6949 27.3916 49.2469 29.4939 49.2759 29.707C49.2759 29.707 49.9538 24.9503 51.0578 23.4003C51.7744 22.4024 54.5634 20.678 55.6577 20.5327C58.3305 20.1742 60.2576 21.5305 60.2576 21.5305C62.7173 19.6802 64.9834 16.1054 64.9834 16.1054C64.9834 16.1054 62.8432 14.8363 64.1118 12.4047C66.8718 7.09576 76.9916 3.24003 82.0563 1.5253C88.9513 -0.809449 93.0767 2.74596 93.0186 2.81377C99.9523 1.11841 105.375 2.05813 105.375 2.05813C105.375 2.05813 105.23 1.11841 108 0.27558C110.653 -0.528504 112.561 0.469335 114.691 2.71689L114.73 2.75565C114.73 2.75565 116.599 0.83747 119.882 2.42626C123.785 4.31537 127.213 11.0774 127.097 20.5714C128.278 20.7071 128.937 20.8524 130.418 21.3561C143.889 13.4316 145.303 24.4853 145.303 24.4853C145.303 24.4853 147.549 23.7199 151.723 24.4368C155.781 25.1344 155.8 25.8997 155.713 27.3335C155.626 28.806 152.75 29.2904 152.75 29.2904C161.688 32.3421 160.322 32.2258 160.322 32.2258C163.683 34.1924 163.954 36.469 163.886 37.4959C163.857 37.8447 163.799 38.0481 163.799 38.0481C163.799 38.0481 169.329 40.8382 169.27 43.638C169.212 46.4377 165.639 45.6143 165.639 45.6143C166.423 47.8328 166.113 50.5163 165.716 52.357C165.445 53.6454 165.135 54.5173 165.135 54.5173C165.135 54.5173 169.803 61.2116 168.583 65.7551H168.564Z" fill="#430C0C"/>
<defs>
<linearGradient id="paint0_linear_102_2" x1="17.6095" y1="315.19" x2="57.1455" y2="315.19" gradientUnits="userSpaceOnUse">
<stop stop-color="#9D584C"/>
<stop offset="0.21" stop-color="#A35F53"/>
<stop offset="0.5" stop-color="#A35F53"/>
<stop offset="0.83" stop-color="#B8685A"/>
<stop offset="1" stop-color="#9E3432"/>
</linearGradient>
<linearGradient id="paint1_linear_102_2" x1="105.275" y1="552.889" x2="219.753" y2="552.889" gradientUnits="userSpaceOnUse">
<stop stop-color="#9C5765"/>
<stop offset="0.21" stop-color="#A35F53"/>
<stop offset="0.5" stop-color="#A35F53"/>
<stop offset="0.83" stop-color="#A35F53"/>
<stop offset="1" stop-color="#D53D22"/>
</linearGradient>
<linearGradient id="paint2_linear_102_2" x1="29.6337" y1="540.277" x2="93.7465" y2="540.277" gradientUnits="userSpaceOnUse">
<stop stop-color="#A35F53"/>
<stop offset="0.21" stop-color="#A35F53"/>
<stop offset="0.5" stop-color="#A35F53"/>
<stop offset="0.83" stop-color="#A35F53"/>
<stop offset="1" stop-color="#C03533"/>
</linearGradient>
<linearGradient id="paint3_linear_102_2" x1="40.7229" y1="254.344" x2="149.681" y2="254.344" gradientUnits="userSpaceOnUse">
<stop stop-color="#B89FC0"/>
<stop offset="1" stop-color="#AD9AB1"/>
</linearGradient>
<linearGradient id="paint4_linear_102_2" x1="125.957" y1="226.466" x2="232.525" y2="226.466" gradientUnits="userSpaceOnUse">
<stop stop-color="#B3685B"/>
<stop offset="0.21" stop-color="#B8685A"/>
<stop offset="0.5" stop-color="#B8685A"/>
<stop offset="0.83" stop-color="#B8685A"/>
<stop offset="1" stop-color="#9E5B5A"/>
</linearGradient>
<linearGradient id="paint5_linear_102_2" x1="63.0966" y1="135.633" x2="138.177" y2="135.633" gradientUnits="userSpaceOnUse">
<stop stop-color="#B46355"/>
<stop offset="0.21" stop-color="#B8685A"/>
<stop offset="0.5" stop-color="#B8685A"/>
<stop offset="0.83" stop-color="#B8685A"/>
<stop offset="1" stop-color="#B46355"/>
</linearGradient>
<linearGradient id="paint6_linear_102_2" x1="148.976" y1="106.86" x2="150.941" y2="73.2282" gradientUnits="userSpaceOnUse">
<stop stop-color="#B8685A"/>
<stop offset="0.23" stop-color="#9C4D40"/>
<stop offset="0.47" stop-color="#89473C"/>
<stop offset="0.7" stop-color="#80392D"/>
<stop offset="0.94" stop-color="#D57565"/>
<stop offset="1" stop-color="#C34D39"/>
</linearGradient>
<linearGradient id="paint7_linear_102_2" x1="149.497" y1="98.1106" x2="150.85" y2="74.9546" gradientUnits="userSpaceOnUse">
<stop stop-color="#FEE6D7"/>
<stop offset="0.99" stop-color="#AF7DB7"/>
</linearGradient>
<linearGradient id="paint8_linear_102_2" x1="146.287" y1="89.3867" x2="146.874" y2="79.3319" gradientUnits="userSpaceOnUse">
<stop stop-color="#FEE6D7"/>
<stop offset="0.99" stop-color="#AF7DB7"/>
</linearGradient>
<linearGradient id="paint9_linear_102_2" x1="62.9528" y1="0.039505" x2="62.9528" y2="0.039505" gradientUnits="userSpaceOnUse">
<stop stop-color="#B8685A"/>
<stop offset="0.23" stop-color="#9C4D40"/>
<stop offset="0.47" stop-color="#89473C"/>
<stop offset="0.7" stop-color="#80392D"/>
<stop offset="0.94" stop-color="#D57565"/>
<stop offset="1" stop-color="#C34D39"/>
</linearGradient>
<linearGradient id="paint10_linear_102_2" x1="57.5098" y1="92.7267" x2="58.8629" y2="69.5707" gradientUnits="userSpaceOnUse">
<stop stop-color="#FEE6D7"/>
<stop offset="0.99" stop-color="#AF7DB7"/>
</linearGradient>
<linearGradient id="paint11_linear_102_2" x1="61.7177" y1="84.4362" x2="62.3052" y2="74.3814" gradientUnits="userSpaceOnUse">
<stop stop-color="#FEE6D7"/>
<stop offset="0.99" stop-color="#AF7DB7"/>
</linearGradient>
<linearGradient id="paint12_linear_102_2" x1="108.009" y1="18.2983" x2="101.929" y2="122.354" gradientUnits="userSpaceOnUse">
<stop offset="0.480669" stop-color="#C5715F"/>
<stop offset="0.480769" stop-color="#DD736A"/>
<stop offset="0.480869" stop-color="#DD736A"/>
<stop offset="0.480969" stop-color="#C47260"/>
<stop offset="0.69" stop-color="#C47260"/>
<stop offset="0.9" stop-color="#C47260"/>
<stop offset="1" stop-color="#C47260"/>
</linearGradient>
<linearGradient id="paint13_linear_102_2" x1="129.999" y1="84.9976" x2="129.999" y2="54.9979" gradientUnits="userSpaceOnUse">
<stop stop-color="white"/>
<stop offset="1" stop-color="#CD95AB"/>
</linearGradient>
<linearGradient id="paint14_linear_102_2" x1="87.4163" y1="85.788" x2="87.4163" y2="47.1594" gradientUnits="userSpaceOnUse">
<stop stop-color="white"/>
<stop offset="0.99" stop-color="#CD95AB"/>
</linearGradient>
<linearGradient id="paint15_linear_102_2" x1="107.25" y1="81.1503" x2="107.25" y2="92.8616" gradientUnits="userSpaceOnUse">
<stop stop-color="#AA4B50" stop-opacity="0.51"/>
<stop offset="0.47" stop-color="#C47260"/>
<stop offset="0.65" stop-color="#C47260"/>
<stop offset="0.9" stop-color="#CF6852"/>
<stop offset="1" stop-color="#AA2639"/>
</linearGradient>
<linearGradient id="paint16_linear_102_2" x1="114.592" y1="88.9985" x2="114.592" y2="82.3028" gradientUnits="userSpaceOnUse">
<stop stop-color="#FEE6D7"/>
<stop offset="0.99" stop-color="#AF7DB7"/>
</linearGradient>
<linearGradient id="paint17_linear_102_2" x1="100.104" y1="88.9985" x2="100.104" y2="82.3028" gradientUnits="userSpaceOnUse">
<stop stop-color="#FEE6D7"/>
<stop offset="0.99" stop-color="#AF7DB7"/>
</linearGradient>
<linearGradient id="paint18_linear_102_2" x1="130.673" y1="77.6036" x2="130.673" y2="65.3079" gradientUnits="userSpaceOnUse">
<stop stop-color="#E9DDED"/>
<stop offset="1" stop-color="#BCC4E3"/>
</linearGradient>
<linearGradient id="paint19_linear_102_2" x1="136.543" y1="70.2749" x2="121.852" y2="70.2749" gradientUnits="userSpaceOnUse">
<stop stop-color="#772B13"/>
<stop offset="1" stop-color="#451A0E"/>
</linearGradient>
<linearGradient id="paint20_linear_102_2" x1="129.201" y1="73.2128" x2="129.201" y2="66.8175" gradientUnits="userSpaceOnUse">
<stop offset="0.177885" stop-color="#96351D"/>
<stop offset="1" stop-color="#451A0E"/>
</linearGradient>
<linearGradient id="paint21_linear_102_2" x1="83.0149" y1="77.6198" x2="83.0149" y2="65.3241" gradientUnits="userSpaceOnUse">
<stop stop-color="#E9DDED"/>
<stop offset="1" stop-color="#BCC4E3"/>
</linearGradient>
<linearGradient id="paint22_linear_102_2" x1="77.1373" y1="70.2942" x2="91.82" y2="70.2942" gradientUnits="userSpaceOnUse">
<stop stop-color="#772B13"/>
<stop offset="1" stop-color="#451A0E"/>
</linearGradient>
<linearGradient id="paint23_linear_102_2" x1="84.4787" y1="73.2403" x2="84.4787" y2="66.8368" gradientUnits="userSpaceOnUse">
<stop stop-color="#5F451A"/>
<stop offset="1" stop-color="#451A0E"/>
</linearGradient>
<linearGradient id="paint24_linear_102_2" x1="123.071" y1="97.2442" x2="126.722" y2="97.2442" gradientUnits="userSpaceOnUse">
<stop stop-color="#803B3C" stop-opacity="0.88"/>
<stop offset="1" stop-color="#803B3C"/>
</linearGradient>
<linearGradient id="paint25_linear_102_2" x1="84.8442" y1="4.99841" x2="88.4945" y2="4.99841" gradientUnits="userSpaceOnUse">
<stop stop-color="#803B3C"/>
<stop offset="1" stop-color="#803B3C"/>
</linearGradient>
</defs>
</svg>
