<svg width="42" height="53" viewBox="0 0 42 53" fill="none" xmlns="http://www.w3.org/2000/svg">
<path id="composer" d="M36.765 40.4869C36.7389 39.5287 36.9313 38.5772 37.3275 37.7044C37.6029 37.0581 37.7981 36.3806 37.9088 35.6869C38.2429 33.4013 38.8264 31.1592 39.6488 29.0006C40.6118 27.6404 41.0803 25.9915 40.9762 24.3281C40.8573 23.9104 40.8229 23.4731 40.875 23.0419C40.9235 22.7385 40.9017 22.428 40.8113 22.1344C40.7474 22.0376 40.7133 21.9241 40.7133 21.8081C40.7133 21.6921 40.7474 21.5787 40.8113 21.4819C40.9613 21.2869 40.86 21.0731 40.2975 20.4244C40.0477 20.1706 39.8298 19.8872 39.6488 19.5806C39.8585 19.4694 40.0752 19.3717 40.2975 19.2881L40.8787 19.0256L41.0438 16.7981C41.16 15.5906 41.2088 14.5969 41.2088 14.5969C41.2088 14.5969 40.4588 14.8069 39.57 15.0844C38.6813 15.3619 37.8638 15.5719 37.7475 15.5719C37.0987 14.9382 36.6893 14.0995 36.5887 13.1981C36.2059 12.4448 36.0447 11.5982 36.1238 10.7569C36.1277 9.00731 35.8594 7.26778 35.3288 5.60063C34.7687 3.63263 33.8271 1.79399 32.5575 0.189381C32.4692 0.116813 32.3669 0.0631986 32.257 0.0318772C32.1471 0.000555895 32.0319 -0.00780173 31.9187 0.00732517C31.8054 0.0224521 31.6964 0.0607396 31.5986 0.119803C31.5008 0.178866 31.4162 0.25744 31.35 0.350631C31.1325 0.759381 31.1513 0.808131 31.9313 2.57813L32.5238 3.94688L31.4963 3.15188C29.8196 1.70817 27.8452 0.651856 25.7138 0.0581311C24.915 -0.0393689 24.885 -0.024369 24.7088 0.466881C24.6675 0.590164 24.6021 0.704028 24.5165 0.801872C24.4309 0.899717 24.3267 0.979597 24.21 1.03688C23.9925 1.10063 23.91 1.28063 23.91 1.73438C24.008 2.20842 24.2125 2.65397 24.5081 3.03728C24.8037 3.4206 25.1827 3.73165 25.6163 3.94688C26.1866 4.42514 26.708 4.95902 27.1725 5.54063C26.6798 5.29925 26.2081 5.01701 25.7625 4.69688C25.2018 4.20448 24.4994 3.90251 23.7563 3.83438C22.365 3.83438 22.3988 4.77938 23.8238 5.77313C24.5986 6.36691 25.3304 7.01477 26.0138 7.71188L27.3038 9.00938L26.145 9.20438C25.157 9.1908 24.1935 9.51197 23.4113 10.1156C23.0625 10.7494 23.28 10.9294 25.2 11.5481C25.9824 11.7797 26.7369 12.0966 27.45 12.4931C28.1486 13.1136 28.9684 13.5822 29.8575 13.8694C30.2808 13.9453 30.6599 14.1784 30.9187 14.5219C31.0458 14.7608 31.2435 14.9547 31.485 15.0769C31.6648 15.1989 31.8169 15.3575 31.9313 15.5423C32.0457 15.7271 32.1198 15.934 32.1488 16.1494C32.2737 16.4709 32.3361 16.8132 32.3325 17.1581C32.2838 17.1919 31.6012 17.4356 30.8325 17.6644L29.4075 18.1031L30.6187 20.2181C31.7437 22.1869 31.845 22.3331 32.2763 22.2844C32.8237 22.2356 32.8238 22.2356 32.3588 23.0006L31.9838 23.6044L32.3588 24.2869C32.57 24.5967 32.6643 24.9715 32.625 25.3444C32.5238 25.6556 32.46 25.6069 32.1263 24.9056C31.5232 23.7845 30.7388 22.7708 29.805 21.9056C29.3676 21.4804 28.8438 21.1542 28.2693 20.9491C27.6947 20.744 27.0828 20.6648 26.475 20.7169L24.9713 20.6719L24.195 19.9219C23.6714 19.4515 23.0876 19.053 22.4588 18.7369C21.52 18.2717 20.4608 18.1068 19.425 18.2644H17.3663L15.7913 19.0781C13.5603 20.3086 11.6918 22.1035 10.3725 24.2831C10.1337 24.7461 9.83896 25.1781 9.495 25.5694C9.495 25.4869 9.4125 25.1119 9.345 24.7406C9.21375 24.0731 9.21375 24.0581 9.72 23.9906C10.2263 23.9231 10.2338 23.8931 10.5825 22.4906C10.7813 21.6769 10.9987 20.8631 11.0625 20.6831C11.1638 20.3569 11.0625 20.3081 9.67125 19.9669C9.38967 19.9808 9.10856 19.9311 8.84886 19.8213C8.58916 19.7116 8.35754 19.5447 8.17125 19.3331C8.26887 18.5375 8.51029 17.7662 8.88375 17.0569C9.03258 16.8889 9.1404 16.6886 9.19875 16.4719C9.3775 16.1385 9.66262 15.8745 10.0087 15.7219C10.6015 15.4196 11.1243 14.9964 11.5435 14.4797C11.9626 13.963 12.2689 13.3642 12.4425 12.7219C13.0228 11.48 13.8004 10.3402 14.745 9.34688C15.1865 8.91468 15.5916 8.44685 15.9563 7.94813C15.8757 7.72773 15.7519 7.52564 15.5922 7.35371C15.4325 7.18177 15.2401 7.04346 15.0262 6.94688L21.54 2.41688L20.8125 1.56938C20.8125 1.56938 11.5162 7.92188 11.4637 7.92188C11.2684 7.5856 11.1184 7.22498 11.0175 6.84938L10.6687 5.79188L11.7938 4.73438C13.005 3.60938 13.2675 3.17063 12.9525 2.79563C12.8213 2.63438 12.525 2.69813 11.265 3.30188C10.3219 3.74269 9.35405 4.12834 8.36625 4.45688C7.09125 4.83188 6.975 4.83188 6.69375 4.60313C5.9925 3.98438 5.54625 4.35938 3.82125 6.98063C3.61825 7.33023 3.36562 7.64854 3.07125 7.92563C2.69425 7.49223 2.37878 7.00893 2.13375 6.48938C1.79526 5.87094 1.41957 5.27359 1.00875 4.70063C0.5625 4.22813 0.13125 4.24313 0 4.73438C0.254014 7.2136 0.850961 9.64556 1.77375 11.9606C2.14875 13.0856 2.17125 13.1494 1.89 13.2956C1.60875 13.4419 1.59 13.5094 1.755 13.9444C1.88625 14.3194 2.02125 14.4019 2.235 14.3194C2.44875 14.2369 2.6325 14.4319 3.01125 15.2794C3.22311 15.5634 3.35473 15.8991 3.39234 16.2514C3.42994 16.6037 3.37214 16.9596 3.225 17.2819C3.07875 17.8331 2.95875 18.2719 2.95875 18.2906C2.65048 18.2489 2.34584 18.1838 2.0475 18.0956C0.5475 17.7206 0.637501 17.5894 0.423751 20.0006C0.307501 21.1894 0.225001 22.2769 0.225001 22.4231C0.225001 22.5694 0.4425 22.7344 0.975 22.7981L1.725 22.8956L1.60875 23.8706C1.5311 24.0786 1.5042 24.3021 1.53029 24.5225C1.55638 24.743 1.6347 24.954 1.75875 25.1381C2.26902 27.9174 2.40899 30.7521 2.175 33.5681V35.8631L2.805 36.0581C3.08719 36.0855 3.35379 36.2003 3.56757 36.3866C3.78135 36.5728 3.93166 36.8211 3.9975 37.0969C4.05513 37.2755 4.14784 37.4408 4.27019 37.5831C4.39253 37.7254 4.54206 37.8419 4.71 37.9256C5.085 38.1881 6.55125 39.2269 7.92375 40.2356C8.75333 40.7654 9.52948 41.3745 10.2413 42.0544C13.5188 44.3044 20.52 48.2756 20.52 48.2756L20.2388 48.8794C19.7235 50.0353 19.3702 51.2569 19.1887 52.5094L26.3775 48.1406L36.765 40.4869Z" fill="#EA7130"/>
</svg>
