<svg width="60" height="60" viewBox="0 0 60 60" fill="none" xmlns="http://www.w3.org/2000/svg">
<g id="icons8-bash-96 1">
<path id="Vector" fill-rule="evenodd" clip-rule="evenodd" d="M28.6287 4.10749C29.4775 3.63124 30.5225 3.63124 31.37 4.10749C35.5638 6.46124 48.1838 13.5462 52.3787 15.9C53.2275 16.375 53.75 17.255 53.75 18.2075C53.75 22.915 53.75 37.0837 53.75 41.7912C53.75 42.7437 53.2275 43.6237 52.3787 44.1C48.185 46.4537 35.565 53.5387 31.37 55.8925C30.5213 56.3687 29.4762 56.3687 28.6287 55.8925C24.435 53.5387 11.815 46.4537 7.62 44.1C6.7725 43.6237 6.25 42.745 6.25 41.7925C6.25 37.085 6.25 22.9162 6.25 18.2087C6.25 17.2562 6.7725 16.3762 7.62125 15.9C11.8138 13.5462 24.4362 6.46124 28.6287 4.10749Z" fill="#EDEDED"/>
<path id="Vector_2" fill-rule="evenodd" clip-rule="evenodd" d="M29.9837 57.7763C28.6275 57.7763 27.27 57.4613 26.0275 56.83C23.2525 55.4213 19.63 53.2063 16.1263 51.0638C13.66 49.5563 11.3313 48.1313 9.505 47.1175C6.72625 45.5725 5 42.6413 5 39.465V20.7838C5 17.5463 6.77125 14.59 9.62375 13.0675C14.29 10.5813 21.77 6.52501 25.7212 4.30501C28.3587 2.82501 31.6375 2.82501 34.2762 4.30501C38.7463 6.81376 47.2375 11.885 52.0913 14.9463C53.9125 16.0925 55 18.0663 55 20.2275V40C55 43 53.9262 45.06 51.8087 46.1188C50.6287 46.7825 48.5238 48.0888 46.0863 49.6025C42.2962 51.955 37.5788 54.8838 34.1313 56.7338C32.8375 57.4275 31.41 57.7763 29.9837 57.7763ZM26.945 6.48501C22.98 8.71251 15.4775 12.7825 10.8 15.275C8.765 16.36 7.5 18.47 7.5 20.7838V39.465C7.5 41.7325 8.73375 43.8275 10.72 44.9313C12.5925 45.9713 14.9425 47.4075 17.4312 48.93C20.8937 51.0463 24.4738 53.2363 27.16 54.6C28.9825 55.5238 31.145 55.4963 32.9487 54.53C36.3275 52.7163 41.0075 49.8113 44.7687 47.4763C47.2312 45.9475 49.3575 44.6275 50.6388 43.9088C52.2938 43.08 52.5 41.3863 52.5 40V20.2275C52.5 18.9313 51.8488 17.7488 50.76 17.0625C45.9325 14.0188 37.4938 8.97876 33.0538 6.48626C31.1413 5.41376 28.8575 5.41376 26.945 6.48501Z" fill="#434345"/>
<path id="Vector_3" fill-rule="evenodd" clip-rule="evenodd" d="M28.7212 52.0675L28.65 35.27C28.6362 32.0275 30.4162 29.0438 33.2762 27.515L48.2887 19.495C50.7862 18.16 53.8062 19.97 53.8062 22.8025V41.215C53.8062 42.5163 53.1312 43.725 52.0237 44.4075L34.4387 55.2425C31.9462 56.78 28.7337 54.995 28.7212 52.0675Z" fill="#434345"/>
<path id="Vector_4" fill-rule="evenodd" clip-rule="evenodd" d="M35.9987 32.8425C36.1525 32.7638 36.28 32.86 36.2825 33.0625L36.2987 34.7125C36.9887 34.4388 37.5887 34.365 38.1325 34.4913C38.2512 34.5213 38.3025 34.6825 38.255 34.8738L37.8912 36.335C37.8612 36.4463 37.8012 36.5575 37.7262 36.6263C37.6937 36.6575 37.6612 36.6813 37.63 36.6975C37.58 36.7225 37.5325 36.73 37.4875 36.7213C37.2387 36.665 36.6487 36.5363 35.7212 37.0063C34.7487 37.5 34.4075 38.345 34.4137 38.9725C34.4225 39.7238 34.8075 39.9513 36.135 39.975C37.905 40.0038 38.6687 40.7788 38.6875 42.5588C38.7075 44.3113 37.7712 46.19 36.3425 47.3413L36.3737 48.9763C36.375 49.1725 36.2487 49.3988 36.0925 49.4763L35.1237 50.0325C34.97 50.1113 34.8425 50.015 34.84 49.8175L34.8237 48.21C33.9937 48.555 33.1562 48.6375 32.62 48.4225C32.5175 48.3825 32.4737 48.2325 32.515 48.0625L32.865 46.5863C32.8925 46.4713 32.9537 46.3538 33.0375 46.2788C33.0662 46.25 33.0975 46.2288 33.1275 46.2125C33.1825 46.185 33.2362 46.1788 33.2825 46.1963C33.86 46.39 34.5987 46.2988 35.31 45.9388C36.2125 45.4825 36.8175 44.5613 36.8075 43.6463C36.7987 42.8163 36.35 42.4725 35.2562 42.4638C33.865 42.4663 32.5675 42.1938 32.5462 40.145C32.5287 38.4575 33.4062 36.7038 34.795 35.5938L34.7787 33.945C34.7775 33.7425 34.9012 33.52 35.06 33.4388L35.9987 32.8425Z" fill="#EDEDED"/>
<path id="Vector_5" fill-rule="evenodd" clip-rule="evenodd" d="M46.5325 43.5712L41.9025 46.3025C41.7662 46.3787 41.5975 46.2787 41.5975 46.1237V44.5587C41.5975 44.4175 41.6737 44.2875 41.7975 44.2175L46.4275 41.4862C46.5662 41.41 46.735 41.51 46.735 41.6675V43.2275C46.735 43.3712 46.6575 43.5012 46.5325 43.5712Z" fill="#4DA925"/>
</g>
</svg>
