<svg width="60" height="60" viewBox="0 0 60 60" fill="none" xmlns="http://www.w3.org/2000/svg">
<g id="git">
<path id="Vector" d="M55.1925 27.585L32.25 4.65372C31.9364 4.33852 31.5635 4.08839 31.153 3.91772C30.7424 3.74704 30.3021 3.65918 29.8575 3.65918C29.4128 3.65918 28.9726 3.74704 28.562 3.91772C28.1514 4.08839 27.7786 4.33852 27.465 4.65372L22.7025 9.41622L28.755 15.4575C29.4671 15.215 30.233 15.1774 30.9654 15.349C31.6979 15.5205 32.3674 15.8943 32.8977 16.4278C33.4281 16.9613 33.798 17.633 33.9652 18.3665C34.1325 19.0999 34.0904 19.8655 33.8437 20.5762L39.6637 26.4C40.5331 26.1017 41.4784 26.1103 42.3422 26.4244C43.206 26.7384 43.936 27.339 44.4107 28.1261C44.8854 28.9131 45.0761 29.839 44.951 30.7496C44.8259 31.6601 44.3926 32.5003 43.7232 33.1301C43.0538 33.7599 42.1888 34.1414 41.2723 34.2109C40.3558 34.2803 39.4432 34.0337 38.6866 33.5119C37.9299 32.9902 37.3748 32.225 37.1139 31.3437C36.8529 30.4624 36.9018 29.5183 37.2525 28.6687L31.8262 23.25V37.5375C32.6454 37.9502 33.2985 38.6309 33.6771 39.4664C34.0558 40.3019 34.137 41.2418 33.9073 42.1298C33.6776 43.0178 33.1509 43.8005 32.4147 44.3476C31.6785 44.8948 30.7772 45.1734 29.8606 45.1373C28.9441 45.1011 28.0675 44.7523 27.3767 44.1488C26.6859 43.5454 26.2225 42.7237 26.0635 41.8203C25.9045 40.9169 26.0596 39.9863 26.5028 39.1833C26.9461 38.3803 27.6509 37.7531 28.5 37.4062V22.9875C28.0091 22.7858 27.5628 22.489 27.187 22.1143C26.8111 21.7395 26.5131 21.2942 26.3099 20.8039C26.1067 20.3136 26.0025 19.7879 26.0031 19.2572C26.0038 18.7264 26.1093 18.201 26.3137 17.7112L20.3775 11.7562L4.65372 27.4762C4.33852 27.7898 4.08839 28.1626 3.91772 28.5732C3.74704 28.9838 3.65918 29.4241 3.65918 29.8687C3.65918 30.3134 3.74704 30.7536 3.91772 31.1642C4.08839 31.5748 4.33852 31.9476 4.65372 32.2612L27.585 55.1925C27.8986 55.5077 28.2714 55.7578 28.682 55.9285C29.0926 56.0992 29.5328 56.187 29.9775 56.187C30.4221 56.187 30.8624 56.0992 31.273 55.9285C31.6835 55.7578 32.0564 55.5077 32.37 55.1925L55.1925 32.37C55.5077 32.0564 55.7578 31.6835 55.9285 31.273C56.0992 30.8624 56.187 30.4221 56.187 29.9775C56.187 29.5328 56.0992 29.0926 55.9285 28.682C55.7578 28.2714 55.5077 27.8986 55.1925 27.585Z" fill="#D52A29"/>
</g>
</svg>
