<svg width="60" height="60" viewBox="0 0 60 60" fill="none" xmlns="http://www.w3.org/2000/svg">
<g id="php2">
<path id="Vector" d="M15.0716 21.4689H4.54867L0 44.5014H5.4027L6.54053 38.5311H11.6594C16.4919 38.8149 21.8973 34.8338 21.8973 28.0095C21.8973 24.0284 19.6203 21.7527 15.0716 21.4689ZM11.0892 34.2662H7.67572L9.09734 25.7364H12.7946C14.7838 25.7364 16.2081 26.5905 16.2081 28.2959C15.9243 33.131 13.6487 33.9824 11.0892 34.2662ZM34.1217 21.4702L29.0027 21.4689L30.1406 15.4986H24.7379L20.1892 38.5311H25.5919L28.1514 25.7364H32.4162C34.4081 25.7364 34.4081 26.5905 34.1217 28.0121L32.1324 38.5337H37.8189L39.8082 26.8743C40.3757 24.031 38.6703 21.754 34.1217 21.4702ZM53.1743 21.4689H42.6514L38.1027 44.5014H43.5054L44.6433 38.5311H49.7622C54.5973 38.8149 60 34.8338 60 28.0095C60 24.0284 57.723 21.7527 53.1743 21.4689ZM49.1919 34.2662H45.7784L47.2001 25.7364H50.8973C52.8892 25.7364 54.3108 26.5905 54.3108 28.2959C54.027 33.131 51.7514 33.9824 49.1919 34.2662Z" fill="#7477AE"/>
</g>
</svg>
