<svg width="61" height="61" viewBox="0 0 61 61" fill="none" xmlns="http://www.w3.org/2000/svg">
<g id="python">
<path id="Vector" d="M30.3056 3.8125C16.7559 3.8125 17.6023 9.71806 17.6023 9.71806V15.8371H30.5496V17.6748H12.4821C12.4821 17.6748 3.8125 16.6873 3.8125 30.4314C3.8125 44.1754 11.3803 43.6874 11.3803 43.6874H15.8943V37.3091C15.8353 36.3076 15.9861 35.3048 16.337 34.365C16.6879 33.4251 17.2312 32.5689 17.9321 31.8511C18.633 31.1333 19.4761 30.5698 20.4073 30.1967C21.3386 29.8235 22.3375 29.6489 23.3401 29.6841H36.1692C37.1091 29.7258 38.0477 29.5749 38.9271 29.2405C39.8066 28.9062 40.6084 28.3955 41.2833 27.74C41.9581 27.0844 42.4918 26.2977 42.8515 25.4283C43.2112 24.5589 43.3893 23.6251 43.3748 22.6844V10.9342C43.3748 10.9342 44.469 3.8125 30.3056 3.8125ZM23.1762 7.92619C23.6389 7.92392 24.0919 8.05906 24.4777 8.31448C24.8635 8.5699 25.1648 8.9341 25.3435 9.36094C25.5221 9.78778 25.57 10.258 25.4812 10.7121C25.3923 11.1662 25.1706 11.5837 24.8442 11.9117C24.5178 12.2397 24.1014 12.4634 23.6478 12.5545C23.1941 12.6456 22.7236 12.6 22.2959 12.4235C21.8682 12.2469 21.5025 11.9474 21.2452 11.5628C20.9879 11.1783 20.8506 10.726 20.8506 10.2632C20.8496 9.95702 20.9089 9.6536 21.0253 9.37035C21.1417 9.0871 21.3128 8.82957 21.5288 8.61251C21.7448 8.39544 22.0015 8.22309 22.2842 8.10533C22.5668 7.98756 22.87 7.92669 23.1762 7.92619ZM30.6982 57.1875C44.2479 57.1875 43.4015 51.2819 43.4015 51.2819V45.1629H30.4543V43.3253H48.5217C48.5217 43.3253 57.1875 44.3127 57.1875 30.5686C57.1875 16.8246 49.6197 17.3126 49.6197 17.3126H45.1095V23.6909C45.1685 24.6924 45.0177 25.6952 44.6668 26.635C44.3159 27.5749 43.7726 28.4311 43.0717 29.1489C42.3708 29.8667 41.5277 30.4302 40.5965 30.8033C39.6652 31.1765 38.6663 31.3511 37.6637 31.3159H24.8346C23.8947 31.2742 22.9561 31.4251 22.0767 31.7595C21.1972 32.0938 20.3954 32.6045 19.7206 33.26C19.0457 33.9156 18.512 34.7023 18.1523 35.5717C17.7927 36.4411 17.6146 37.3749 17.629 38.3156V50.0848C17.629 50.0848 16.5348 57.1875 30.6982 57.1875ZM37.8276 53.0738C37.3649 53.0761 36.9119 52.9409 36.5261 52.6855C36.1403 52.4301 35.839 52.0659 35.6603 51.6391C35.4817 51.2122 35.4338 50.742 35.5226 50.2879C35.6115 49.8338 35.8332 49.4163 36.1596 49.0883C36.486 48.7603 36.9024 48.5366 37.356 48.4455C37.8097 48.3544 38.2802 48.4 38.7079 48.5765C39.1356 48.7531 39.5013 49.0526 39.7586 49.4372C40.0159 49.8217 40.1532 50.274 40.1532 50.7367C40.1543 51.043 40.0949 51.3464 39.9785 51.6297C39.8621 51.9129 39.691 52.1704 39.475 52.3875C39.259 52.6046 39.0023 52.7769 38.7197 52.8947C38.437 53.0124 38.1339 53.0733 37.8276 53.0738Z" fill="#FFCB6B"/>
</g>
</svg>
