<svg width="60" height="60" viewBox="0 0 60 60" fill="none" xmlns="http://www.w3.org/2000/svg">
<g id="react">
<path id="Vector" d="M35.2386 29.8624C35.2386 25.7557 30.7918 23.1751 27.2536 25.2284C23.7154 27.2818 23.7154 32.443 27.2536 34.4963C30.7918 36.5496 35.2386 33.969 35.2386 29.8624ZM47.4273 19.9987C50.95 3.15997 43.2 -2.12415 30.0249 10.0645C17.6249 -1.56051 8.79453 2.10315 12.5521 19.9282C-4.77538 25.1519 -3.62734 34.9851 12.693 40.0079C8.95893 56.4239 15.934 62.4125 30.0249 50.0125C43.6932 62.2716 50.9472 56.5318 47.2159 39.9374C65.0175 33.9018 63.4205 25.1654 47.4273 19.9987ZM45.0318 19.3646C42.2392 18.7347 39.5369 18.2761 36.7886 18.0259C35.3406 15.9087 33.654 13.7937 31.7159 11.8259C42.2789 1.69384 48.5044 4.85973 45.0318 19.3646ZM17.7658 33.1033C18.8109 35.3344 20.1847 37.3776 21.2181 39.092C19.5354 38.9199 17.7227 38.6585 15.7931 38.317C16.4114 36.5862 17.0696 34.8482 17.7658 33.1033ZM17.6249 27.0442C16.8562 25.199 16.1547 23.4181 15.5817 21.7601C17.5737 21.3471 19.5257 20.9722 21.2181 20.8441C19.9586 22.8227 18.7622 24.8914 17.6249 27.0442ZM19.1044 30.1442C20.8273 26.6938 22.6498 23.4186 24.6704 20.4919C28.2556 20.2857 31.8027 20.304 35.3091 20.5623C37.2756 23.3025 39.111 26.5775 40.875 30.1442C39.555 32.872 37.6806 36.0157 35.5204 39.3738C31.9137 39.6469 28.2155 39.6091 24.459 39.3738C22.5551 36.457 20.767 33.3847 19.1044 30.1442ZM42.2136 33.1033C42.8978 34.7634 43.53 36.4555 44.1159 38.176C42.3076 38.5568 40.5238 38.8343 38.7613 39.0215C39.9677 37.1524 41.1121 35.1678 42.2136 33.1033ZM38.7613 20.8441C40.6824 21.1071 42.5381 21.4355 44.3273 21.8305C43.7287 23.6092 43.0487 25.3476 42.2841 27.0442C41.1935 24.8933 40.0227 22.8232 38.7613 20.8441ZM33.3363 17.7441C31.142 17.658 28.9098 17.6608 26.6431 17.7441C27.6354 16.4391 28.7414 15.0758 29.9545 13.6577C31.1366 14.9338 32.2567 16.3073 33.3363 17.7441ZM28.2636 11.8259C26.3254 13.7937 24.6388 15.8382 23.1908 17.9555C20.4425 18.2057 17.6698 18.6642 14.8771 19.2941C11.5658 4.56907 17.7005 1.69384 28.2636 11.8259ZM13.3271 37.6829C-1.35097 33.2677 -0.646423 26.3866 13.1862 22.3237C14.0324 24.8914 15.0568 27.4991 16.2158 30.0033C15.0896 32.593 14.0925 35.253 13.3271 37.6829ZM15.159 40.642C17.6484 41.2526 20.2865 41.5457 23.0499 41.8397C24.7127 44.1863 26.4346 46.3679 28.2636 48.2511C17.5075 58.561 11.5113 54.8152 15.159 40.642ZM29.9545 46.4897C28.6799 45.1698 27.4899 43.6743 26.3613 42.0511C28.8769 42.1041 31.3066 42.1099 33.6181 42.0511C32.4987 43.6392 31.276 45.1173 29.9545 46.4897ZM31.7159 48.2511C33.6783 46.1188 35.4084 43.9572 36.9295 41.7692C39.5257 41.5782 42.156 41.1793 44.8205 40.5715C48.5011 55.6575 41.8181 57.8851 31.7159 48.2511ZM46.5818 37.542C45.8271 35.112 44.8741 32.593 43.7636 30.0033C44.9064 27.4991 45.8884 24.9618 46.7227 22.3941C60.2266 26.4805 61.3069 33.0093 46.5818 37.542Z" fill="#26A2C1"/>
</g>
</svg>
