<svg width="60" height="60" viewBox="0 0 60 60" fill="none" xmlns="http://www.w3.org/2000/svg">
<g id="sql">
<path id="Vector" d="M17.4858 32.0165C16.9145 32.9686 16.0728 33.7383 15.6309 34.8624C14.7078 36.8533 15.065 41.1633 14.4827 41.1707C13.803 41.4967 12.7317 39.5393 12.2749 38.3726C11.1184 35.4218 10.9035 30.6702 11.9211 27.2737C13.3301 22.793 13.418 23.0273 11.4796 20.9177C9.6874 18.3019 8.83461 14.0588 7.68165 11.0523C5.91432 7.12052 1.74804 3.81622 3.97223 2.3256C4.77236 1.65498 7.4596 2.98431 9.45755 4.30171C10.8689 5.23232 11.792 6.22017 12.0978 6.21491C15.4688 6.12305 16.7871 6.26953 22.2549 9.53507C27.3459 12.9873 31.5082 17.9018 34.3555 23.7642C35.0627 26.2201 38.4766 34.2188 40.8028 38.2779C41.4037 39.1395 43.7233 39.6018 44.7775 40.0801C47.2942 40.9255 47.7832 41.3379 51.3137 44.0644C51.9405 44.5386 53.8674 45.5782 53.9635 46.4352C50.8573 46.3448 48.4849 46.6546 46.4565 47.5733C45.88 47.8345 44.9608 47.8412 44.8668 48.6171C45.3662 49.1602 44.9121 49.9512 47.5161 52.5064C50.1654 54.8827 51.4453 55.0781 54.6705 56.9649C57.761 59.1063 57.8013 59.7714 58.4681 60V59.9053C57.8117 58.3565 57.8499 58.5771 56.7017 57.3439C52.5391 51.7578 49.4833 52.1409 48.2228 49.4708C51.6056 48.1688 53.3594 48.6328 56.5255 47.4786V47.0991C54.3773 43.6916 48.2422 38.6328 42.7388 36.8323C39.2206 30.1215 37.748 25.3488 35.9452 21.4875C32.1561 14.6162 22.1484 3.28125 13.0693 4.03304C12.4763 3.7668 11.8593 2.98752 11.3029 2.61013C9.08759 1.10705 3.40521 -2.16234 1.76436 2.13597C0.728307 4.84909 3.31274 7.49671 4.23705 8.87102C4.88591 9.83549 5.71657 10.9168 6.1801 12.0013C6.63387 13.1768 6.50391 14.0479 8.82986 19.7799C10.5493 23.498 10.8702 22.407 11.2144 23.764C10.669 24.5837 10.6379 25.856 10.3314 26.8944C7.85156 35.1562 11.742 44.919 15.5424 43.3054C17.4898 42.4579 16.8351 39.1793 17.6337 36.9932C18.7695 39.1211 19.1211 41.875 24.2865 46.0565C25.2041 46.8007 26.1875 48.1557 27.36 48.5833C26.1462 47.7418 25.1032 46.4734 24.1098 45.1077C22.5005 42.761 21.078 40.1924 19.7822 37.5186C17.659 33.2856 18.1112 32.4829 17.4858 32.0165ZM14.5473 12.6524C13.9453 11.2305 13.7143 11.5573 13.0768 10.8561C12.4367 10.8435 11.9708 10.9462 11.4921 11.0584C11.4658 11.0752 11.4724 11.1097 11.4941 11.1523C11.7994 11.8261 12.4239 12.2596 12.8015 12.84L13.6746 14.8085C14.3228 14.3439 14.5537 13.5826 14.5473 12.6524Z" fill="#39ADB5"/>
</g>
</svg>
