<svg width="60" height="60" viewBox="0 0 60 60" fill="none" xmlns="http://www.w3.org/2000/svg">
<g id="wordpress">
<path id="Vector" d="M8.77686 30.5063C8.77686 38.8931 13.6519 46.1475 20.7225 49.5769L10.6144 21.8775C9.43685 24.5156 8.77686 27.4313 8.77686 30.5063ZM44.28 29.4356C44.28 26.8163 43.3369 25.0013 42.5325 23.5894C41.4581 21.8419 40.4531 20.3663 40.4531 18.6169C40.4531 16.6688 41.925 14.8556 44.0119 14.8556C44.1019 14.8556 44.1937 14.8688 44.2837 14.8744C40.515 11.4206 35.4919 9.30939 29.9737 9.30939C22.5675 9.30939 16.0537 13.11 12.2662 18.8644C12.765 18.8794 13.2319 18.8906 13.6294 18.8906C15.8475 18.8906 19.2787 18.6188 19.2787 18.6188C20.4187 18.555 20.5537 20.2294 19.4119 20.3663C19.4119 20.3663 18.2662 20.4994 16.9875 20.5688L24.7069 43.5244L29.3456 29.6156L26.0419 20.5688C24.9 20.4994 23.82 20.3663 23.82 20.3663C22.6762 20.2969 22.8131 18.555 23.9569 18.6188C23.9569 18.6188 27.4537 18.8906 29.5369 18.8906C31.7531 18.8906 35.1881 18.6188 35.1881 18.6188C36.3262 18.555 36.4612 20.2294 35.3194 20.3663C35.3194 20.3663 34.1737 20.4994 32.8969 20.5688L40.5562 43.35L42.6712 36.2888C43.7456 33.5325 44.2856 31.2525 44.2856 29.4356H44.28ZM30.345 32.3606L23.9831 50.8406C25.8806 51.3975 27.8869 51.7013 29.9719 51.7013C32.4375 51.7013 34.8075 51.2738 37.0106 50.4975C36.9544 50.4075 36.9019 50.3119 36.8587 50.2088L30.345 32.3606ZM48.57 20.3363C48.6637 21.0131 48.7162 21.7369 48.7162 22.5188C48.7162 24.6675 48.3131 27.0844 47.1019 30.1106L40.6275 48.825C46.9275 45.1538 51.1631 38.3288 51.1631 30.5081C51.1631 26.82 50.2237 23.3569 48.57 20.3363Z" fill="#2A7AC9"/>
</g>
</svg>
